<svg xmlns="http://www.w3.org/2000/svg" version="1.1" xmlns:xlink="http://www.w3.org/1999/xlink" width="512" height="512" x="0" y="0" viewBox="0 0 511.997 511.997" style="enable-background:new 0 0 512 512" xml:space="preserve" class=""><g><path d="M189.549 199.098c-.967 2.558-1.851 5.531-.511 7.915 1.252 2.228 3.977 3.087 6.458 3.702a182.767 182.767 0 0 0 45.362 5.365c5.716-.044 11.572-.388 16.827-2.638 5.255-2.25 9.861-6.756 10.792-12.396 1.325-8.023-4.74-15.19-10.371-21.057l-25.661-26.739c-12.284-12.799-16.993-1.206-24.322 9.767a178.977 178.977 0 0 0-18.574 36.081zM200.738 488.814c13.387 1.358 26.076-8.223 32.06-20.276 5.983-12.052 6.497-26.055 5.769-39.491-.729-13.436-2.576-26.942-.872-40.29.796-6.231 2.453-12.549 6.277-17.531 3.825-4.982 10.182-8.377 16.37-7.296 5.981 1.045 10.679 6.012 13.069 11.594 2.391 5.581 2.869 11.765 3.316 17.82.922 12.483 1.889 24.963 2.766 37.448 1.015 14.441-8.366 37.541 6.842 47.921 11.591 7.91 30.492-2.122 35.504-13.429 4.362-9.84 3.503-21.106 2.46-31.819-3.887-39.933-9.18-79.753-16.898-119.125-15.109-3.941-30.434-7.91-46.048-7.767-12.839.118-27.164 3.266-37.48 11.361-7.703 6.045-8.009 13.442-8.569 22.71-1.935 32.044-4.353 64.018-7.91 95.927-.488 4.376-6.031 52.306-6.656 52.243z" style="" fill="#63686c" data-original="#63686c"></path><path d="M236.973 155.777c3.905 3.561 7.888 7.174 12.663 9.438 4.776 2.264 10.551 3.019 15.316.734 1.413-.677 2.714-1.615 3.712-2.822.63-.762 1.131-1.621 1.722-2.413 5.034-6.743 17.669-7.555 25.075-5.007 5.975 2.056 11.011 7.897 10.346 14.18a82.914 82.914 0 0 1 13.346 3.802c7.236-9.679 14.513-19.406 23.204-27.803 2.995-2.894 6.243-5.75 7.869-9.585a439.598 439.598 0 0 0-55.83 4.893c1.988-6.834 6.573-10.872 10.332-16.513 3.695-5.545 5.717-12.771 6.731-19.282 2.003-12.865-.325-26.497-7.165-37.645-1.45-2.362-3.11-4.65-5.305-6.343-3.673-2.833-8.44-3.728-13.02-4.463a432.436 432.436 0 0 0-19.99-2.733c-9.199-1.04-18.515-1.783-27.698-.606s-18.307 4.405-25.271 10.505c-10.809 9.468-21.31 30.255-15.44 44.539 7.753 18.867 24.691 33.71 39.403 47.124z" style="" fill="#fdd2b9" data-original="#fdd2b9"></path><path d="M328.613 97.536c2.466 13.178 9.851 25.377 20.384 33.671 1.045.823 2.163 1.663 2.692 2.884.855 1.975-.092 4.213-.876 6.218-3.114 7.965-3.67 16.908-1.566 25.197.848 3.34 2.193 6.69 4.713 9.04 8.954 8.349 19.07-.296 28.724-1.41-1.669 6.865-3.347 14.006-1.914 20.925.639 3.088 1.896 6.127 1.658 9.271-.206 2.716-1.51 5.213-2.851 7.583-11.426 20.199-28.791 36.204-52.704 39.115-8.746 1.065-19.524-.929-22.739-9.132-.777-1.982-1.006-4.131-1.185-6.253a155.349 155.349 0 0 1-.478-17.581 29.116 29.116 0 0 0-11.768-3.426c-1.979 4.236-6.342 7.024-10.915 7.996-4.573.973-9.346.339-13.879-.809-.808-.204-1.723-.41-2.426.036-.515.327-.779.928-.979 1.504-2.115 6.071-.21 13.001 3.58 18.194s9.242 8.916 14.804 12.141c19.827 11.496 42.975 17.986 65.786 15.765 14.079-1.371 27.9-6.24 39.556-14.289 5.673-3.917 11.856-8.858 15.742-14.642 1.046-1.556 1.955-5.53 3.907-6.108 2.568-.76 8.989 4.102 11.29 5.29.658.339 1.379.689 2.106.552.887-.167 1.474-.989 1.96-1.75a149.15 149.15 0 0 0 16.954-36.778c2.306-7.575 4.004-15.715 1.915-23.353-4.539-15.318-19.606-20.978-30.683-30.45-1.605-1.372-3.326-2.957-3.539-5.058-.202-1.986 1.013-3.808 2.171-5.433 5.109-7.169 11.872-16.492 13.63-25.226 1.93-9.59-2.06-19.436-7.421-27.619-8.291-12.659-20.097-22.989-33.744-29.527-13.236-6.341-29.304-3.847-41.636 4.105-11.859 7.654-12.57 27.06-10.269 39.357zM230.365 303.902c-1.567-4.029-6.864-5.839-10.864-4.199-4 1.641-6.461 6.043-6.513 10.366-.088 7.439 6.129 13.783 13.158 16.221 7.028 2.438 14.708 1.805 22.103.995 3.505-.384 7.051-.812 10.337-2.091 7.026-2.735 12.298-9.532 13.199-17.018.156-1.301.179-2.675-.384-3.858-1.139-2.393-4.158-3.138-6.801-3.333a39.242 39.242 0 0 0-11.103.765c.16-.034-5.837-7.32-9.716-6.699-4.37.697-10.366 5.861-13.416 8.851z" style="" fill="#fdd2b9" data-original="#fdd2b9"></path><path d="M269.355 166.424c-8.505-3.555-19.393.223-23.869 8.282-4.476 8.059-1.928 19.298 5.586 24.639.579 9.74 8.087 18.663 17.584 20.898s20.197-2.403 25.058-10.862c8.314 7.814 23.025 7.282 30.753-1.112s7.045-23.099-1.427-30.74c-5.174-4.666-12.301-6.603-17.741-10.957-3.113-2.492-5.588-5.71-8.717-8.182-3.991-3.152-9.74-4.863-14.623-3.306-1.743.555-13.769 10.853-12.604 11.34z" style="" fill="#f28291" data-original="#f28291" class=""></path><path d="m295.999 263.333-29.914-22.771-4.752-13.229 1.172-4.965-4.821-8.925L201.999 212l-110 4-48.667 16.333 2.667 19.334-8.667 38.667s4.333 30 5.667 30.667c1.333.667 16.333 14.667 16.333 14.667l-4.333 23 12 17.332 14.333 14.333 5 28 15.333 13 22.334 5.334 14.667 20 38 13.333 24 3.667 7-13 12-134.667-6.678-15.931-2.989-13.402 24.5 3.833 13.75-5.25 11.5 5.5 11.651 3.566 5.099 4.934 20.25 2 36.5-3.75 49.5-22.75 21.5-24.5 15.027-20.979-13.397-5.842-14.63 14.321-31.5 19.25-30.25 1.25-33.5-4.917z" style="" fill="#ffffff" data-original="#ffffff" class=""></path><path d="m350.813 140.308-25.814 21.942-5.846 11.439 10.346 12.811-1 16.25-11.75 11.25-14.277 3.066.477 17.581 8.55 11.603 15.374 3.781 30.376-10.531 22.328-28.585 1.193-16.854 1.914-20.926L366.249 181l-12.289-6.454-5.711-17.796zM447.749 88.5l-41.865 53.383 25.865 26.367 8.356 9.141-1.915 23.353L428.749 220l4.25 15 12.5 3.25 13.75-10.5 1.25-34.5 10.75-19 7.25-17.5-6.5-21.5-16.25-25.75z" style="" fill="#ffffff" data-original="#ffffff" class=""></path><path d="m437.749 24.75-11.5 9.25 22 36.5 20.25-12zM266.085 240.562l-16.086 38.688 29.75 8.25 9.25-7 .5-19.75z" style="" fill="#f7dd6d" data-original="#f7dd6d" class=""></path><path d="M493.364 17.42C485.969 5.164 471.069-1.996 456.885.491c-14.112 2.474-23.896 14.271-29.284 26.861-7.247-5.308-15.496-9.323-24.093-11.934-8.983-2.729-18.835-3.931-28.571-3.384-10.237-.154-20.352 1.522-29.599 5.478-11.887 5.085-21.864 16.118-21.404 29.721.198 5.851 2.38 10.666 5.725 14.612-10.137 15.768-11.287 36.091-2.819 53.025a50.747 50.747 0 0 0 16.942 19.334c-7.752-.05-15.504.365-23.26.682-7.003.287-14.19.24-21.265.761 5.355-5.878 9.676-12.783 12.553-20.492 5.518-14.785 6.333-33.194-.152-47.823a4.495 4.495 0 0 0-1.115-1.55c5.403-11.952 2.641-25.665-6.165-35.782-11.084-12.733-29.14-16.673-45.328-16.453-16.325.222-31.87 4.465-45.854 12.305-16.101 5.199-27.607 18.677-31.836 34.355a54.935 54.935 0 0 0-1.035 2.845c-4.088 12.411-4.925 29.601 4.976 39.625 2.222 2.25 4.741 3.808 7.412 4.781 2.278 15.271 11.594 28.735 24.138 37.699-8.413 7.453-15.239 17.089-20.882 26.667-5.908 10.029-11.747 21.907-14.081 33.44a1017.36 1017.36 0 0 0-6.038-.022c-28.156-.011-56.376 2.219-84.143 6.919-13.559 2.295-27.321 4.801-40.558 8.577-4.953 1.413-10.031 3.657-12.882 8.189-3.279 5.214-2.043 11.434.042 16.825 1.923 4.971 3.538 9.77 2.962 15.191-.583 5.491-2.712 10.855-4.511 16.033-1.064 3.063-2.191 6.177-3.127 9.331-5.291-5.112-14.35-11.167-18.799-3.966-2.306 3.732-1.446 9.869-1.266 14.004.221 5.099.802 10.237 2.171 15.167 4.301 15.487 18.852 31.328 35.792 29.61-.747 4.694-2.561 9.522-3.218 14.277l-.009-.002c-7.157-.815-14.293-1.541-21.502-1.603-3.351-.029-5.151 3.072-4.622 6.069 4.316 24.486 30.859 38.189 53.848 32.633.328-.079.627-.185.913-.303 1.875 3.858 1.865 8.585 2.021 12.743.389 10.354 1.685 20.856 11.061 27.053 7.949 5.253 17.79 4.697 26.318 8.322 4.881 2.075 6.775 5.927 9.58 10.118 3.186 4.762 7.324 8.467 12.514 10.941 11.548 5.507 24.511 8.701 36.624 12.747 4.21 1.406 9.556 3.622 14.822 4.786a179.467 179.467 0 0 0-6.069 4.365c-4.148 3.137-9.5 6.439-11.687 11.362-4.628 10.415 6.818 17.095 15.62 17.349 20.441.59 40.96-13.358 48.406-32.274.33-.837.374-1.628.215-2.345 4.362-4.383 6.034-10.151 6.721-16.317.979-8.779.789-17.71.638-26.526-.298-17.443-3.414-36.369.575-53.562 1.591-6.858 6.982-16.153 15.485-14.192 8.102 1.868 11.442 10.909 12.265 18.234.992 8.831.421 17.938.44 26.809l.059 28.323c.025 11.856-2.924 30.654 7.953 38.735.049.182.125.363.246.539 6.125 8.895 15.352 15.364 25.041 19.896 9.26 4.331 20.917 8.82 31.317 7.916 9.965-.865 17.769-10.581 12.229-20.129-4.468-7.702-13.758-14.638-22.46-18.255 5.585-9.922 3.755-23.32 2.688-34.11-3.971-40.149-9.219-80.153-15.453-120.012a111.816 111.816 0 0 0 31.978-6.341c27.709-9.879 50.296-29.362 67.64-52.763 4.448-6.002 8.525-12.264 12.265-18.73 4.134 9.231 16.844 11.899 25.46 6.564 12.896-7.984 12.845-24.268 13.431-37.65.341-7.786 1.496-14.596 5.672-21.294 3.791-6.08 8.176-11.753 9.587-18.951 2.841-14.5-3.368-28.376-10.843-40.444-8.35-13.479-19.472-28.56-16.017-44.995 14.749.187 29.385-6.85 37.99-18.971 8.924-12.571 10.119-30.411 2.091-43.714zM335.17 110.001c-6.859-13.207-6.124-29.579.393-42.789 4.081 2.934 8.826 5.17 13.549 6.841 13.897 4.917 28.806 5.553 43.495 5.357-6.405 11.622-3.502 27.09 8.313 35.159 4.698 3.209 9.805 4.544 14.893 4.458-11.327 12.364-17.079 29.078-27.783 42.028-6.056 7.326-18.398 18.285-28.512 12.35-11.5-6.749-6.332-22.413-2.916-32.87a53.229 53.229 0 0 0 17.744 2.698c4.565-.081 4.389-6.533 0-6.969-15.936-1.582-31.775-12.012-39.176-26.263zm12.373 35.215c-3.779 9.884-5.075 20.826 1.32 29.909 7.6 10.796 20.708 9.953 31.075 4.311-.165.332-.338.66-.495.998-3.925 8.452-5.744 19.016-1.466 27.632a195.991 195.991 0 0 1-20.484 20.154c-9.272 7.875-20.484 16.249-33.203 16.363-11.553.104-23.383-9.388-18.939-21.816.075-.211.113-.416.148-.621 12.764.728 25.771-8.536 28.847-21.306 2.669-11.081-1.757-21.725-9.917-28.038 6.239-10.349 13.773-19.894 23.114-27.586zm-62.046 19.488c-6.007-.329-5.393 9.768 1.155 8.536 3.45-.649 5.41 2.324 5.305 5.264-7.11-3.342-15.941-2.661-22.869 1.208.892-9.195 6.729-18.585 15.774-20.292a4.585 4.585 0 0 0 1.852-.237 17.145 17.145 0 0 1 4.104.218c5.329.924 10.267 4.934 11.638 10.27 1.359 5.29-.934 9.667-4.706 12.885-.451-.455-.92-.881-1.404-1.284 3.636-7.571-2.318-16.101-10.849-16.568zm-45.997-9.37c1.749.382 3.512.691 5.287.904 14.062 1.689 27.857-1.542 39.501-8.408a95.11 95.11 0 0 0-1.738 4.208 26.318 26.318 0 0 0-10.006 4.838 25.431 25.431 0 0 0-5.735 6.288c-4.148-.24-8.247.255-11.984 1.527-.112-.079-.213-.165-.339-.234-5.099-2.812-10.144-5.825-14.986-9.123zm7.08 14.092a22.02 22.02 0 0 0-5.051 6.569c-3.811-.597-7.606-.819-11.465-1.048-1.898-.113-3.801-.202-5.698-.333-2.737-.189-4.33.205-4.599-2.932-.325-3.807 1.459-8.89 2.076-12.713.528-3.271.935-6.509 1.279-9.781 6.159 8.818 13.864 15.701 23.458 20.238zm2.61 9.49c2.925-5.686 8.938-9.074 15.064-10.641-1.701 4.598-2.177 9.681-1.502 14.778.064.484.215.911.427 1.281a21.28 21.28 0 0 0-2.572 3.404c-2.735 1.906-5.102 4.142-6.861 6.768-5.998-2.556-7.517-9.836-4.556-15.59zm9.09 21.411c.945 4.482 3.719 8.534 8.197 10.184 7.268 2.678 15.838-3.154 15.028-11.092-.464-4.556-7.616-4.656-7.215 0 .339 3.939-4.205 5.708-6.863 2.835-2.13-2.302-1.969-5.644-.648-8.303 2.496-5.025 8.883-7.951 14.25-8.034 6.417-.099 12.573 4.128 12.829 10.932.229 6.062-3.717 12.189-8.058 16.107-8.273 7.465-23.971 7.957-28.144-4.42-.65-1.928-.907-3.795-.841-5.591.738-.679 1.244-1.616 1.465-2.618zm44.031-10.516c2.511-1.678 4.556-3.966 6.037-6.59 2.454 1.172 4.695 2.755 6.118 5.105 1.661 2.743 2.147 8.642-2.47 8.56-5.855-.103-4.756 9.553 1.079 7.972 6.794-1.841 10.676-8.778 8.37-15.505-1.847-5.391-6.402-8.297-11.486-9.753a20.869 20.869 0 0 0 1.06-5.481c11.124 2.431 18.575 13.744 14.777 25.14-1.903 5.71-6.296 10.115-12.07 11.856-5.21 1.571-9.73.657-14.536-1.07 3.728-6.326 5.379-13.67 3.121-20.234zm20.241-45.729c6.199-.466 12.391-.9 18.558-1.565-9.936 6.783-18.352 15.513-24.12 26.172a28.032 28.032 0 0 0-6.85-1.585c-2.005-6.46-7.165-11.774-13.514-14.244a22.348 22.348 0 0 0-5.463-1.346 140.45 140.45 0 0 0 1.647-5.515c9.83.355 19.977-1.183 29.742-1.917zm-121.456-35.379c6.423-.278 12.919-3.104 17.883-7.411 9.161-7.948 11.581-19.942 12.745-31.61 10.237 8.786 22.027 15.823 35.629 17.648 13.271 1.781 26.767-1.988 36.043-11.351 2.225 6.071 3.86 12.002 3.799 18.754-.07 7.693-1.652 15.422-4.917 22.406-6.814 14.573-20.224 24.657-35.732 28.437-29.429 7.174-54.675-10.873-65.45-36.873zm3.867 67.366c3.528-6.699 7.633-12.969 11.808-19.21a421.273 421.273 0 0 0-1.896 7.377c-.958 3.874-2.822 8.761-.998 12.667 1.603 3.433 5.162 4.28 8.587 4.714 5.566.706 11.236 1.55 16.861 1.723-.858 8.248 3.544 16.311 11.335 19.671a22.237 22.237 0 0 0 .187 5.889 19.68 19.68 0 0 0 .758 3.016c-19.002-4.558-39.032-6.048-58.713-6.495 3.749-9.951 7.05-19.816 12.071-29.352zm111.019 240.138c1.06 8.566 2.107 17.138 3.013 25.722.639 6.058 1.405 12.754-.581 18.641-2.407 7.135-8.903 9.071-15.733 9.928-5.26.66-13.969 2.408-17.164-3.175-3.368-5.884-2.066-15.466-2.314-21.946l-.998-26.225c-.339-8.921-.562-17.857-1.036-26.772-.376-7.069-1.206-14.285-4.492-20.665-5.397-10.476-17.603-16.901-28.719-11.035-12.828 6.77-15.28 23.444-16.732 36.396-2.119 18.908.396 37.772.142 56.708-.105 7.783-.166 16.547-8.433 20.008-5.022 2.103-10.519 1.728-15.884.623a15.779 15.779 0 0 0 1.471-2.671c2.525-5.831 2.333-13.116 2.956-19.332l2.499-24.948c3.24-32.341 6.105-64.628 8.405-97.042 9.813 4.408 21.543 3.04 31.653-.365 9.37-3.155 19.836-10.396 19.149-21.394 9.469 3.476 19.44 5.43 29.51 5.991 4.21 33.878 9.097 67.672 13.288 101.553zM217.1 302.21c3.473-3.428 9.867.457 13.094 3.205 2.062 1.756 4.515 1.315 6.089-.785 4.366-5.82 11.87-5.92 16.408-.347 1.269 1.559 3.719 1.168 5.044 0 1.036-.913 2.297-1.166 3.52-.962a94.01 94.01 0 0 0 3.032 1.55c.667.628 1.195 1.394 1.479 2.239 1.108 3.296-.58 6.999-2.862 9.329-4.886 4.989-13.376 6.392-19.994 7.242-6.761.869-14.088.857-19.958-3.121-5.97-4.044-9.413-11.684-5.852-18.35zm187.089-49.331c-10.404 14.042-23.208 26.571-37.94 36.021-14.317 9.185-30.168 15.302-46.984 16.782-8.792.774-17.274 2.141-26.151 1.499-4.006-.29-19.735-1.194-21.657-4.515-3.115-5.382-9.896-7.95-15.625-5.438-9.498-8.773-16.44-.929-25.345-.62-9.832.342-23.227-7.286-32.574-10.265-10.949-3.489-25.207-2.971-36.595-3.121-18.079-.238-36.185.934-54.161 2.81-2.573.268-2.669 4.268 0 4.099 17.757-1.122 35.464-.551 53.16 1.278 8.914.921 17.814 1.912 26.668 3.314 2.79.441 5.634.999 8.498 1.549-13.442 4.49-26.518 11.063-38.815 17.433-17.02 8.815-33.747 18.139-49.89 28.488-2.432 1.559-.211 5.423 2.276 3.894 16.075-9.879 32.835-18.823 50.381-25.818 13.155-5.245 26.818-9.291 40.146-14.098-12.808 11.885-23.425 26.711-34.382 40.068-12.653 15.425-25.175 30.885-37.03 46.94-1.753 2.374 2.298 5.537 4.121 3.18 12.197-15.776 24.722-31.506 38.23-46.187 12.237-13.3 26.444-25.291 38.11-39.136.007 4.907 1.896 9.777 5.44 13.584-.731.766-1.26 1.774-1.402 3.048-2.991 27.018-5.73 53.982-7.91 81.081l-3.178 39.501-.836 10.395c-.214 2.661.03 5.922-1.089 8.386-2.462 5.422-11.326.656-15.216-.701-11.974-4.179-24.032-8.251-35.887-12.758-4.336-1.648-8.972-3.648-12.017-7.296-3.315-3.97-5.189-8.778-9.256-12.169-6.654-5.549-15.337-6.523-23.401-8.729-3.863-1.057-8.064-2.442-10.514-5.844-2.796-3.882-2.713-9.289-2.911-13.845-.404-9.31-1.376-18.198-8.02-25.312-5.585-5.981-14.104-8.794-19.261-15.12-6.157-7.553.717-19.093.392-27.717-.375-9.935-6.643-16.545-13.455-23.019-7.355-6.99-10.912-13.638-8.592-23.94 2.129-9.456 6.849-18.127 8.349-27.747.704-4.514.791-8.82-.068-13.323-.818-4.291-3.298-11.055.928-14.299 3.753-2.881 10.633-3.344 15.111-4.436a508.074 508.074 0 0 1 19.485-4.347c28.184-5.71 56.795-9.204 85.537-10.222 28.376-1.006 56.438 1.968 84.73 2.526a20.462 20.462 0 0 0 4.07 3.426c-3.41 7.076-1.986 13.915 1.783 19.832-4.94 9.796-10.721 19.639-14.507 29.876-1.512 4.089-1.612 8.89 1.629 12.217 3.133 3.215 8.199 3.924 12.331 4.969 8.625 2.18 20.052 7.116 27.337-.549 5.902-6.209 5.194-15.747 5.072-24.065 11.885 5.494 24.397 9.715 37.473 10.304 30.211 1.363 57.128-13.97 76.168-36.184 1.269 1.493 2.733 2.81 4.267 4.051a168.34 168.34 0 0 1-7.023 10.269zM283.53 277.976c-1.933 9.335-12.097 4.592-18.501 3.035-2.579-.626-7.436-.943-9.596-2.664-2.83-2.254 1.514-9.46 2.637-12.098l7.911-18.585c3.546 3.639 7.829 6.714 12.007 8.988a347.242 347.242 0 0 0 6.7 3.558c-1.727 5.882.103 11.677-1.158 17.766zm133.941-45.981c-.626 1.139-1.283 2.264-1.93 3.393-1.429-.755-2.902-1.441-4.42-1.971a126.15 126.15 0 0 0 6.151-8.738c2.313-3.606-3.247-6.685-5.664-3.311-17.376 24.275-43.756 43.925-74.569 44.738-16.516.436-31.357-5.677-46.039-12.577-11.229-5.277-29.815-14.04-26.637-29.068 6.628 2.391 14.481 2.096 20.788-1.006 2.815-1.385 5.537-3.358 7.982-5.727.198.19.41.371.651.531a23.5 23.5 0 0 0 3.792 2.037c-4.709 11.714.839 24.884 12.221 30.459 13.665 6.694 29.301 2.256 41.099-6.116 26.518-18.82 43.778-43.313 57.638-72.366 1.417-2.97-2.941-5.593-4.461-2.607-5.156 10.135-11.263 19.742-18.168 28.738-2.697-13.95 7.723-27.234 14.656-39.561 2.501-3.758 4.813-7.677 7.092-11.628 1.392 4.02 4.244 7.708 6.854 10.812 1.899 2.259 3.928 4.563 6.204 6.499a13.915 13.915 0 0 0-2.957 1.989 13.178 13.178 0 0 0-3.296 3.387c-2.469 3.654-2.073 6.744-2.329 10.879-.244 3.951-3.101 6.156-4.587 9.692-5.188 12.341 5.565 27.157 18.27 24.398-3.095 5.501-5.402 11.781-8.341 17.124zm8.354-25.744c-3.819 1.474-8.263-.453-10.067-4.092-2.22-4.477.014-8.484 2.311-12.264 2.08-3.423 2.61-6.232 2.182-10.212-.304-2.817.359-5.332 1.773-7.116 1.989-1.501 4.729-1.997 7.27-1.216 4.09 1.258 6.608 5.825 7.264 9.789 1.219 7.365-2.894 22.084-10.733 25.111zm29.406-88.945c7.159 13.74 19.148 29.785 14.386 46.226-2.126 7.341-7.788 12.878-11.162 19.6-3.546 7.065-4.152 14.866-3.983 22.657.189 8.718 1.783 26.542-10.63 28.381-3.232.479-6.677-1.017-8.534-3.705-2.93-4.24-1.651-9.974-.259-14.937 3.605-12.859 13.842-30.58 6.513-43.417-1.897-3.321-4.798-6.143-8.223-7.744-.064-.119-.126-.239-.21-.357-3.269-4.638-8.023-7.477-11.956-11.532-3.433-3.539-6.222-8.1-10.122-11.156-4.377-3.429 31.482-35.78 34.056-39.694a45.316 45.316 0 0 0 2.604-4.538c1.329 6.975 4.186 13.819 7.52 20.216zm-3.275-53.325c-.994-5.113-2.706-10.084-5.116-14.685-3.505-6.692-8.238-12.521-13.768-17.486 14.682 4.344 23.407 18.298 18.884 32.171z" fill="#000000" opacity="1" data-original="#000000" class=""></path></g></svg>