<svg xmlns="http://www.w3.org/2000/svg" version="1.1" xmlns:xlink="http://www.w3.org/1999/xlink" width="512" height="512" x="0" y="0" viewBox="0 0 512 512" style="enable-background:new 0 0 512 512" xml:space="preserve" class=""><g><g fill-rule="evenodd" clip-rule="evenodd"><path d="M41.5 158.4c0-5.9 4.826-10.725 10.725-10.725H127.3v85.8H41.5zm107.25-10.725h85.8v85.8h-85.8zm107.25 0h85.8v85.8H256zm107.25 0h71.322c10.188 0 19.305 7.506 20.913 17.694l12.334 76.15c1.072 8.043 2.145 16.087 2.145 24.131h-74.539l-32.175-32.175zm-343.2 0v193.05c0 11.797 9.653 21.45 21.45 21.45h1.073c-.536-3.219-1.073-6.972-1.073-10.725 0-29.494 24.132-53.625 53.625-53.625 29.494 0 53.625 24.131 53.625 53.625 0 3.753-.536 7.506-1.072 10.725h195.195c-.536-3.219-1.073-6.972-1.073-10.725 0-29.494 24.131-53.625 53.625-53.625s53.625 24.131 53.625 53.625c0 3.753-.536 7.506-1.072 10.725H470.5c11.797 0 21.45-9.653 21.45-21.45v-68.64c0-11.263-1.073-23.06-2.68-34.323l-12.335-76.68c-3.753-20.379-21.45-35.395-42.364-35.395H41.5c-11.797.538-21.45 10.188-21.45 21.988z" fill="#497d33" opacity="1" data-original="#000000" class=""></path><path d="M432.962 351.45c0 20.73-16.805 37.538-37.537 37.538s-37.538-16.807-37.538-37.538 16.806-37.538 37.538-37.538 37.537 16.807 37.537 37.538zM132.662 351.45c0 20.73-16.805 37.538-37.537 37.538S57.587 372.18 57.587 351.45s16.806-37.538 37.538-37.538 37.538 16.807 37.538 37.538z" fill="#497d33" opacity="1" data-original="#497d33" class=""></path></g></g></svg>