<svg xmlns="http://www.w3.org/2000/svg" version="1.1" xmlns:xlink="http://www.w3.org/1999/xlink" width="512" height="512" x="0" y="0" viewBox="0 0 512 512" style="enable-background:new 0 0 512 512" xml:space="preserve" class=""><g><path fill="#40b4d0" d="M363.927 212.6c23.987-10.752 23.556-16.691 17.771-20.407-5.213-3.348 11.619-9.354 14.756-17.378 2.231-5.706-7.27-5.547-2.206-16.095a41.929 41.929 0 0 0 3.743-18.567 3.361 3.361 0 0 0-3.884-3.259 41.937 41.937 0 0 0-17.635 6.91c-9.508 6.819-11-2.565-16.233.622-7.358 4.483-10.35 22.1-14.552 17.55-4.664-5.052-10.588-4.445-17.012 21.045-2 7.93-15.678 2.7-8.369 23.185 3.9 6.779 4.784 10.624 4.151 17.637 6.8-1.84 10.737-1.634 18.09 1.025 21.446 3.643 13.918-8.921 21.38-12.268z" opacity="1" data-original="#70b222" class=""></path><path fill="#40b4d0" d="M290.6 214.689c-18.863-18.308-16.427-23.741-9.719-25.255 6.043-1.363-7.72-12.763-7.923-21.377-.145-6.125 8.729-2.726 7.577-14.37a41.949 41.949 0 0 1 2.834-18.727 3.361 3.361 0 0 1 4.764-1.734 41.938 41.938 0 0 1 14.208 12.524c6.6 9.66 11.216 1.353 15.042 6.137 5.381 6.729 2.166 24.309 7.672 21.469 6.111-3.152 11.469-.556 8.787 25.594-.834 8.135 13.811 7.9-.065 24.65-5.979 5.038-8.128 8.347-9.933 15.153-5.757-4.054-9.531-5.207-17.349-5.223-21.403-3.915-10.032-13.146-15.895-18.841z" opacity="1" data-original="#70b222" class=""></path><path fill="#b2e5ef" d="m266.042 486.039-8.992-1.586 70.625-342.946 19.7 3.473-46.442 315.878a30 30 0 0 1-34.891 25.181z" opacity="1" data-original="#b4e055" class=""></path><path fill="#7dd1e3" d="m338.51 143.418-66.58 343.07a29.516 29.516 0 0 1-5.89-.45l-8.99-1.58 70.63-342.95z" opacity="1" data-original="#9ed342" class=""></path><path fill="#40b4d0" d="M148.073 212.6c-23.987-10.75-23.556-16.689-17.773-20.4 5.213-3.348-11.619-9.354-14.756-17.378-2.231-5.706 7.27-5.547 2.206-16.095a41.929 41.929 0 0 1-3.743-18.567 3.361 3.361 0 0 1 3.884-3.259 41.937 41.937 0 0 1 17.635 6.91c9.508 6.819 11-2.565 16.233.622 7.358 4.483 10.35 22.1 14.552 17.55 4.664-5.052 10.588-4.445 17.012 21.045 2 7.93 15.678 2.7 8.369 23.185-3.9 6.779-4.784 10.624-4.151 17.637-6.8-1.84-10.737-1.634-18.09 1.025-21.444 3.636-13.916-8.928-21.378-12.275z" opacity="1" data-original="#70b222" class=""></path><path fill="#40b4d0" d="M221.405 214.689c18.863-18.308 16.427-23.741 9.719-25.255-6.043-1.363 7.72-12.763 7.923-21.377.145-6.125-8.729-2.726-7.577-14.37a41.949 41.949 0 0 0-2.834-18.727 3.361 3.361 0 0 0-4.764-1.734 41.938 41.938 0 0 0-14.208 12.524c-6.6 9.66-11.216 1.353-15.042 6.137-5.381 6.729-2.166 24.309-7.672 21.469-6.111-3.152-11.469-.556-8.787 25.594.834 8.135-13.811 7.9.065 24.65 5.979 5.038 8.128 8.347 9.933 15.153 5.757-4.054 9.531-5.207 17.349-5.223 21.398-3.915 10.027-13.146 15.895-18.841z" opacity="1" data-original="#70b222" class=""></path><path fill="#b2e5ef" d="M276 486.5h-40l10-350h20z" opacity="1" data-original="#b4e055" class=""></path><path fill="#7dd1e3" d="m257 136.5-6 350h-15l10-350z" opacity="1" data-original="#9ed342" class=""></path><path fill="#2597b5" d="M290.307 142.62c17.093-35.272 10.909-41.642.74-40.342-9.163 1.172 4.307-21.821.2-33.993-2.921-8.655-13.621.632-17.946-16.27-2.874-11.233-9.357-20.032-13.52-24.794a5.011 5.011 0 0 0-7.56 0c-4.163 4.762-10.646 13.561-13.521 24.794-4.324 16.9-15.024 7.615-17.945 16.27-4.108 12.172 9.362 35.165.2 33.993-10.169-1.3-16.353 5.07.74 40.342 5.317 10.973-15.324 18.107 12.662 34.5C245.3 181.134 250 184.675 256 193.29c6-8.615 10.7-12.156 21.645-16.166 27.986-16.397 7.345-23.531 12.662-34.504z" opacity="1" data-original="#8bc932" class=""></path><path fill="#2597b5" d="M365.938 149.3c19.442-26.9 15.222-33.125 6.549-33.536-7.814-.371 6.8-17.565 5.165-28.321-1.163-7.648-11.453-1.475-12.574-16.207-.744-9.792-4.858-18.083-7.629-22.667a4.244 4.244 0 0 0-6.305-1.111c-4.172 3.359-10.873 9.743-14.922 18.69-6.092 13.46-13.65 4.14-17.359 10.929-5.216 9.548 2.637 30.7-4.833 28.379-8.29-2.58-14.384 1.824-5.315 33.754 2.82 9.933-15.443 12.848 5.486 30.638 8.539 4.953 11.938 8.6 15.674 16.665 6.27-6.3 10.71-8.565 20.429-10.3 25.751-9.555 9.586-18.541 15.634-26.913z" opacity="1" data-original="#8bc932" class=""></path><path fill="#b2e5ef" d="m254.95 484.453-8.992 1.586a30 30 0 0 1-34.891-25.181L164.629 144.98l19.7-3.473z" opacity="1" data-original="#b4e055" class=""></path><path fill="#7dd1e3" d="M229.63 484.36a30 30 0 0 1-18.56-23.5l-46.44-315.879 10.83-1.911z" opacity="1" data-original="#9ed342" class=""></path><path fill="#2597b5" d="M203.285 139.213c9.069-31.93 2.975-36.334-5.315-33.754-7.47 2.325.383-18.831-4.833-28.379-3.709-6.789-11.267 2.531-17.359-10.929-4.049-8.947-10.75-15.331-14.922-18.69a4.244 4.244 0 0 0-6.305 1.111c-2.771 4.584-6.885 12.875-7.63 22.667-1.12 14.732-11.41 8.559-12.573 16.207-1.636 10.756 12.979 27.95 5.165 28.321-8.673.411-12.893 6.633 6.549 33.536 6.048 8.369-10.117 17.355 15.634 26.914 9.719 1.734 14.159 4 20.429 10.3 3.736-8.067 7.134-11.712 15.674-16.665 20.929-17.791 2.666-20.706 5.486-30.639z" opacity="1" data-original="#8bc932" class=""></path></g></svg>