<svg xmlns="http://www.w3.org/2000/svg" version="1.1" xmlns:xlink="http://www.w3.org/1999/xlink" width="512" height="512" x="0" y="0" viewBox="0 0 128 128" style="enable-background:new 0 0 512 512" xml:space="preserve" class=""><g><path fill="#ecdb9b" d="M78.852 17.377 45.286 40.856a6.279 6.279 0 0 0-2.554 6.5 5.035 5.035 0 0 1 .123 1.107c0 3.794-4.153 6.869-9.26 6.869a11.969 11.969 0 0 1-3.9-.639 6.108 6.108 0 0 0-5.458.872L4.107 69.646l119.786-7.318c-2.608-42.254-45.041-44.951-45.041-44.951z" opacity="1" data-original="#ffe17d" class=""></path><g fill="#ffc369"><path d="M4.107 104.288a6.334 6.334 0 0 0 7.014 6.3l58.33-6.3a6.479 6.479 0 0 0 5.036-3.722 7.462 7.462 0 0 1 12.53-1.322 6.36 6.36 0 0 0 5.625 2.531l25.6-2.766a6.335 6.335 0 0 0 5.653-6.3V62.328L4.107 69.646z" fill="#e3c566" opacity="1" data-original="#ffc369" class=""></path><ellipse cx="98.09" cy="48.09" rx="7.646" ry="5.664" fill="#e3c566" opacity="1" data-original="#ffc369" class=""></ellipse><ellipse cx="68.053" cy="46.186" rx="6.18" ry="4.577" fill="#e3c566" opacity="1" data-original="#ffc369" class=""></ellipse><ellipse cx="82.874" cy="31.134" rx="6.18" ry="4.577" fill="#e3c566" opacity="1" data-original="#ffc369" class=""></ellipse></g><path fill="#dcb043" d="M105.736 72.278A5.725 5.725 0 1 0 111.461 78a5.725 5.725 0 0 0-5.725-5.722z" opacity="1" data-original="#ffaa5f" class=""></path><circle cx="24.32" cy="83.728" r="4.887" fill="#dcb043" transform="rotate(-4.7 24.482 84.212)" opacity="1" data-original="#ffaa5f" class=""></circle><circle cx="52.309" cy="86.388" r="6.708" fill="#dcb043" opacity="1" data-original="#ffaa5f" class=""></circle><path fill="#dcb043" d="M72.47 75.04a1.75 1.75 0 0 0 2.469 2.48 1.761 1.761 0 0 0 0-2.48 1.807 1.807 0 0 0-2.469 0z" opacity="1" data-original="#ffaa5f" class=""></path><path fill="#e3c566" d="M51.069 54.1a1.75 1.75 0 1 0 2.471 0 1.767 1.767 0 0 0-2.471 0z" opacity="1" data-original="#ffc369" class=""></path><circle cx="95.895" cy="91.17" r="1.748" fill="#dcb043" opacity="1" data-original="#ffaa5f" class=""></circle><path fill="#dcb043" d="M26.91 95.18a1.747 1.747 0 1 0 2.47 0 1.746 1.746 0 0 0-2.47 0z" opacity="1" data-original="#ffaa5f" class=""></path></g></svg>