<svg xmlns="http://www.w3.org/2000/svg" version="1.1" xmlns:xlink="http://www.w3.org/1999/xlink" width="512" height="512" x="0" y="0" viewBox="0 0 310 310" style="enable-background:new 0 0 512 512" xml:space="preserve" class=""><g><path d="M253.381 206.25v93.215H310v-60.488zM0 299.465h56.619v-93.287L0 238.977zM66.619 174.559v124.598h58.047v-52.825c0-16.568 13.432-30 30-30h.668c16.568 0 30 13.432 30 30v52.825h58.047V174.559L155 101.247l-88.381 73.312z" fill="#497d33" opacity="1" data-original="#000000" class=""></path><path d="m27.502 161.587 14.996 18.198L155 87.083l112.502 92.702 14.996-18.198L162 62.297V40.202h21.631v-14H162V10.535h-14v15.667h-21.631v14H148v22.095z" fill="#497d33" opacity="1" data-original="#497d33" class=""></path></g></svg>