<svg xmlns="http://www.w3.org/2000/svg" version="1.1" xmlns:xlink="http://www.w3.org/1999/xlink" width="512" height="512" x="0" y="0" viewBox="0 0 495.898 495.898" style="enable-background:new 0 0 512 512" xml:space="preserve" class=""><g><path d="m108.22 327.71-.234-.003c-24.414-.75-44.98-6.736-61.128-17.793-14.166-9.7-24.691-23.054-31.285-39.69-14.667-37.005-6.278-84.002 11.02-101.301A7.5 7.5 0 0 1 37.2 179.529c-11.814 11.814-20.904 51.808-7.683 85.167 11.968 30.195 39.261 46.799 78.93 48.017a7.5 7.5 0 0 1-.227 14.997zM387.678 327.71a7.5 7.5 0 0 1-.226-14.997c39.668-1.218 66.962-17.822 78.93-48.017 13.222-33.359 4.133-73.354-7.682-85.168a7.5 7.5 0 0 1 0-10.606 7.5 7.5 0 0 1 10.607 0c17.298 17.299 25.686 64.296 11.019 101.302-6.594 16.636-17.12 29.989-31.285 39.689-16.148 11.057-36.714 17.043-61.128 17.793-.08.003-.158.004-.235.004z" style="" fill="#b2e5ef" data-original="#f95c5c" class="" opacity="1"></path><path d="M437.326 439.557a7.503 7.503 0 0 1-7.295-5.79c-13.301-56.747-57.949-62.421-58.399-62.472a7.5 7.5 0 0 1 1.682-14.905c.583.065 14.469 1.727 30.144 11.791 14.289 9.174 33.031 27.406 41.178 62.163a7.501 7.501 0 0 1-7.31 9.213zM410.31 470.629a7.504 7.504 0 0 1-7.295-5.79c-8.449-36.044-29.167-51.687-45.06-58.463a7.5 7.5 0 0 1-3.958-9.84 7.499 7.499 0 0 1 9.841-3.958c15.62 6.66 43.378 24.458 53.78 68.838a7.501 7.501 0 0 1-7.308 9.213zM375.91 495.898a7.503 7.503 0 0 1-7.295-5.789c-4.533-19.33-13.1-34.78-25.46-45.921a7.5 7.5 0 0 1 10.043-11.141c14.675 13.228 24.775 31.274 30.021 53.638a7.5 7.5 0 0 1-7.309 9.213zM58.572 439.557a7.5 7.5 0 0 1-7.309-9.213c8.146-34.757 26.889-52.989 41.177-62.163 15.675-10.064 29.561-11.726 30.144-11.791a7.5 7.5 0 0 1 1.713 14.902c-1.881.23-45.236 6.185-58.43 62.475a7.501 7.501 0 0 1-7.295 5.79zM85.588 470.629a7.501 7.501 0 0 1-7.309-9.213c10.403-44.379 38.16-62.178 53.78-68.837a7.5 7.5 0 0 1 9.841 3.958 7.5 7.5 0 0 1-3.958 9.84c-15.892 6.776-36.609 22.419-45.06 58.463a7.502 7.502 0 0 1-7.294 5.789zM119.988 495.898a7.5 7.5 0 0 1-7.309-9.214c5.243-22.363 15.344-40.41 30.021-53.638a7.501 7.501 0 0 1 10.043 11.141c-12.361 11.142-20.928 26.592-25.46 45.921a7.5 7.5 0 0 1-7.295 5.79z" style="" fill="#40b4d0" data-original="#d11c1c" class="" opacity="1"></path><path d="m220.202 222.163-30.94 21.89-21.69 15.35a32.081 32.081 0 0 1-5.77-18.41c0-12.79 7.46-23.85 18.27-29.05.02-.01.03-.02.05-.02.21-.11.43-.21.66-.31.18-.09.36-.17.54-.24 3.9-1.68 8.2-2.61 12.72-2.61 10.77 0 20.31 5.28 26.16 13.4zM334.092 240.993c0 6.84-2.13 13.18-5.77 18.4l-32.72-23.15v-.01l-19.9-14.08c5.85-8.11 15.39-13.39 26.16-13.39 2.36 0 4.65.25 6.87.74 1.24.26 2.46.61 3.65 1.02.02 0 .05.02.07.02 12.6 4.38 21.64 16.36 21.64 30.45z" style="" fill="#235367" data-original="#5b5b68" class="" opacity="1"></path><path d="M308.732 209.503c-9.83-.94-15.88 13.66-13.13 26.73l-19.9-14.08c5.85-8.11 15.39-13.39 26.16-13.39 2.36 0 4.65.25 6.87.74zM189.262 244.053l-21.69 15.35a32.081 32.081 0 0 1-5.77-18.41c0-12.79 7.46-23.85 18.27-29.05-12.03 6.18-8.78 27.72 9.19 32.11z" style="" fill="#112c3b" data-original="#40404c" class="" opacity="1"></path><path d="M206.101 67.947c-.42 27.99-14.14 59.55-39.65 85.06-43.01 43.02-103.26 52.52-134.56 21.22-31.29-31.3-21.79-91.54 21.22-134.56 42.75-42.75 102.5-52.4 133.96-21.81-9.44 4.57-19.57 11.82-28.99 21.25-23.17 23.17-33.24 50.67-22.49 61.42 10.76 10.76 38.26.69 61.43-22.48 3.3-3.3 6.33-6.69 9.08-10.1z" style="" fill="#b2e5ef" data-original="#f95c5c" class="" opacity="1"></path><path d="M116.971 50.097c-43.01 43.02-52.51 103.26-21.22 134.56 1.97 1.97 4.06 3.78 6.25 5.43-27 6.21-52.92 1.33-70.11-15.86-31.29-31.3-21.79-91.54 21.22-134.56 40.31-40.31 95.75-51.19 128.31-26.65-22.17 5.11-45.06 17.69-64.45 37.08z" style="" fill="#40b4d0" data-original="#d11c1c" class="" opacity="1"></path><path d="M289.797 67.947c.42 27.99 14.14 59.55 39.65 85.06 43.01 43.02 103.26 52.52 134.56 21.22 31.29-31.3 21.79-91.54-21.22-134.56-42.75-42.75-102.5-52.4-133.96-21.81 9.44 4.57 19.57 11.82 28.99 21.25 23.17 23.17 33.24 50.67 22.49 61.42-10.76 10.76-38.26.69-61.43-22.48-3.3-3.3-6.33-6.69-9.08-10.1z" style="" fill="#b2e5ef" data-original="#f95c5c" class="" opacity="1"></path><path d="M418.698 20.087c-8.39 5.46-16.51 12-24.09 19.58-13.5 13.5-23.69 28.69-30.36 44.15-1.92-12.91-11.44-29.72-26.43-44.71-9.42-9.43-19.55-16.68-28.99-21.25 25.88-25.17 70.91-23.1 109.87 2.23zM373.387 174.227c11.81 11.81 27.74 17.81 45.31 18.39-29 .97-62.47-12.82-89.25-39.61-25.51-25.51-39.23-57.07-39.65-85.06 2.75 3.41 5.78 6.8 9.08 10.1 21.63 21.63 47.04 31.84 59.07 24.35-6.83 27.62-2.11 54.28 15.44 71.83z" style="" fill="#40b4d0" data-original="#d11c1c" class="" opacity="1"></path><path d="M211.688 225.855 132.18 283.62c-21.622 15.709-30.669 43.555-22.411 68.973l30.369 93.467c8.259 25.418 31.946 42.628 58.672 42.628h98.277c26.726 0 50.413-17.209 58.672-42.628l30.369-93.467c8.259-25.418-.789-53.263-22.411-68.973l-79.508-57.766c-21.621-15.709-50.899-15.709-72.521.001z" style="" fill="#b2e5ef" data-original="#f95c5c" class="" opacity="1"></path><path d="M247.95 214.077c-6.21 0-12.41 3.92-17.69 11.78l-38.79 57.76c-10.54 15.71-14.96 43.56-10.93 68.98l14.82 93.46c4.03 25.42 15.58 42.63 28.62 42.63h-25.17c-26.73 0-50.41-17.21-58.67-42.63l-30.37-93.46c-8.26-25.42.79-53.27 22.41-68.98l79.51-57.76a61.554 61.554 0 0 1 36.26-11.78z" style="" fill="#40b4d0" data-original="#d11c1c" class="" opacity="1"></path><path d="M247.949 470.18a7.5 7.5 0 0 1-7.5-7.5V259.386c0-4.142 3.357-7.5 7.5-7.5s7.5 3.358 7.5 7.5V462.68a7.5 7.5 0 0 1-7.5 7.5z" style="" fill="#40b4d0" data-original="#d11c1c" class="" opacity="1"></path></g></svg>