<svg xmlns="http://www.w3.org/2000/svg" version="1.1" xmlns:xlink="http://www.w3.org/1999/xlink" width="512" height="512" x="0" y="0" viewBox="0 0 100 100" style="enable-background:new 0 0 512 512" xml:space="preserve" class=""><g><linearGradient id="a" x1="14.349" x2="85.101" y1="50.115" y2="50.115" gradientUnits="userSpaceOnUse"><stop stop-opacity="1" stop-color="#82A880" offset="0"></stop><stop stop-opacity="1" stop-color="#82A880" offset="1"></stop></linearGradient><path fill="url(#a)" d="M82.46 14.29C60.39 22.04 41.73 37.13 27.51 55.5c-2.95 3.82-5.72 7.77-8.3 11.83.1-6.53.09-13.06-.04-19.59-.06-2.79-4.4-2.8-4.34 0 .25 12.05.09 24.11-.47 36.15-.1 2.06 3.15 3.08 4.04 1.1a55.405 55.405 0 0 1 28.46-28.15c2.55-1.11.35-4.85-2.19-3.75-8.4 3.66-15.84 9.35-21.67 16.37 11.03-17.32 25.55-32.63 43.36-42.99 5.49-3.19 11.25-5.88 17.25-7.99 2.62-.92 1.5-5.11-1.15-4.19z" opacity="1" data-original="url(#a)" class=""></path></g></svg>