<svg xmlns="http://www.w3.org/2000/svg" version="1.1" xmlns:xlink="http://www.w3.org/1999/xlink" width="512" height="512" x="0" y="0" viewBox="0 0 511.999 511.999" style="enable-background:new 0 0 512 512" xml:space="preserve" class=""><g><path fill="#dcb043" d="M511.999 308.032c0 91.833-74.445 166.504-166.278 166.504s-166.73-74.671-166.73-166.504 74.897-270.569 166.73-270.569S511.999 216.2 511.999 308.032z" opacity="1" data-original="#fcd0a3" class=""></path><path fill="#d3942d" d="M443.583 105.76c24.302 54.695 38.783 114.164 38.783 156.732 0 78.174-48.831 145.089-117.655 171.681-18.288 7.066-35.182-12.638-25.598-29.742 15.989-28.534 25.114-61.417 25.114-96.398 0-52.642-20.569-125.049-52.402-184.466-10.828-20.21-22.441-37.992-34.656-53.205-57.805 55.984-98.177 170.248-98.177 237.67 0 91.833 74.898 166.504 166.73 166.504 91.833 0 166.278-74.671 166.278-166.504-.001-55.251-26.948-141.959-68.417-202.272z" opacity="1" data-original="#ffb983" class=""></path><path fill="#d6f2f7" d="M333.008 308.032c0 91.833-74.445 166.504-166.278 166.504S0 399.865 0 308.032 74.897 37.463 166.73 37.463 333.008 216.2 333.008 308.032z" opacity="1" data-original="#f1faff" class=""></path><path fill="#b2e5ef" d="M264.591 105.76c24.302 54.695 38.783 114.164 38.783 156.732 0 101.453-82.244 183.948-183.697 183.948-20.344 0-39.932-3.324-58.254-9.446 28.746 23.455 65.427 37.543 105.308 37.543 91.833 0 166.278-74.671 166.278-166.504-.001-55.252-26.949-141.96-68.418-202.273z" opacity="1" data-original="#c7eefb" class=""></path><circle cx="166.73" cy="313.236" r="93.659" fill="#ecdb9b" opacity="1" data-original="#fdf3ac" class=""></circle><path fill="#e3c566" d="M215.419 233.214c8.651 14.188 13.636 30.856 13.636 48.689 0 51.726-41.932 93.659-93.658 93.659-17.833 0-34.501-4.986-48.689-13.637 16.442 26.965 46.129 44.969 80.022 44.969 51.726 0 93.658-41.932 93.658-93.659 0-33.893-18.004-63.579-44.969-80.021z" opacity="1" data-original="#fcee56" class=""></path></g></svg>