<svg xmlns="http://www.w3.org/2000/svg" version="1.1" xmlns:xlink="http://www.w3.org/1999/xlink" width="512" height="512" x="0" y="0" viewBox="0 0 512 512" style="enable-background:new 0 0 512 512" xml:space="preserve" class=""><g><path d="M291.484 113.248c-11.393-32.253-46.776-49.164-79.029-37.771l-61.683 21.789 25.245 71.466 119.719-43.45-4.252-12.034z" style="" fill="#b2e5ef" data-original="#fbbf00" class="" opacity="1"></path><path d="m176.017 343.267-25.245 71.466 61.683 21.789c32.253 11.393 67.636-5.517 79.029-37.77l4.251-12.035-119.718-43.45z" style="" fill="#7dd1e3" data-original="#ffa900" class="" opacity="1"></path><path d="M328.793 119.756c-99.049 0-217.351 78.811-249.175 119.559v33.368c31.823 40.749 150.125 119.559 249.175 119.559C444.378 392.243 512 256 512 256s-67.622-136.244-183.207-136.244z" style="" fill="#7dd1e3" data-original="#ffa900" class="" opacity="1"></path><path d="M79.618 256v16.684c31.823 40.749 150.125 119.559 249.175 119.559C444.378 392.243 512 256 512 256H79.618z" style="" fill="#40b4d0" data-original="#ff8800" class="" opacity="1"></path><path d="M512 256s-47.006-94.673-129.609-126.174c-25.911 34.944-41.323 78.691-41.323 126.173s15.411 91.229 41.323 126.174C464.994 350.673 512 256 512 256z" style="" fill="#b2e5ef" data-original="#fbbf00" class="" opacity="1"></path><path d="M512 256H341.068c0 47.482 15.411 91.229 41.323 126.174C464.994 350.673 512 256 512 256z" style="" fill="#7dd1e3" data-original="#ffa900" class="" opacity="1"></path><circle cx="416.24" cy="221.63" r="15" style="" fill="#224657" data-original="#333333" class="" opacity="1"></circle><path d="M33.53 256h-7.088C11.838 256 0 244.162 0 229.558v-62.027h7.994c41.131 0 74.474 33.343 74.474 74.474v27.989c0 41.131-33.343 74.474-74.474 74.474H0v-62.027C0 267.838 11.838 256 26.442 256" style="" fill="#40b4d0" data-original="#ff8800" class="" opacity="1"></path><path d="M33.53 256h-7.088 56.027v13.995c0 41.131-33.343 74.474-74.474 74.474H0v-62.027C0 267.838 11.838 256 26.442 256" style="" fill="#217a99" data-original="#e47700" class="" opacity="1"></path></g></svg>