<svg xmlns="http://www.w3.org/2000/svg" version="1.1" xmlns:xlink="http://www.w3.org/1999/xlink" width="512" height="512" x="0" y="0" viewBox="0 0 413.1 413.1" style="enable-background:new 0 0 512 512" xml:space="preserve" class=""><g><path d="M92.028 400.3c-.2 0-.5 0-.7-.1-1.9-.4-3.1-2.3-2.7-4.1 28.6-136.8 57-217 75.7-260.3 20.5-47.3 34.2-61.9 34.7-62.5 1.3-1.4 3.6-1.4 4.9-.1 1.4 1.3 1.4 3.5.1 4.9-.2.2-13.8 15-33.8 61.4-18.5 42.9-46.5 122.5-74.9 258-.2 1.7-1.7 2.8-3.3 2.8z" style="" fill="#dcb043" data-original="#dc8744" class="" opacity="1"></path><path d="M219.528 76.3c21-22 31.2-76.3 31.2-76.3s-42 11.3-60.4 53.8c-2 4.6-5.1 10.2-2 19.5 2.5 7.6 13.3 22 31.2 3z" style="" fill="#e3c566" data-original="#f6c358" class="" opacity="1"></path><path d="M250.728 0s-10.2 54.3-31.2 76.3c-12.3 12.8-21 10.8-26.1 5.6l57.3-81.9z" style="" fill="#ecdb9b" data-original="#fcd462" class="" opacity="1"></path><path d="M186.728 91.7c0-28.7-28.7-72.2-28.7-72.2s-21.5 35.3-6.1 76.3c1.5 4.6 3.6 10.2 11.3 14.8 7.1 3.6 23.5 6.2 23.5-18.9z" style="" fill="#e3c566" data-original="#f6c358" class="" opacity="1"></path><path d="M158.128 19s28.7 44 28.7 72.2c0 16.4-7.2 21-13.8 21l-14.9-93.2z" style="" fill="#ecdb9b" data-original="#fcd462" class="" opacity="1"></path><path d="M205.228 132.1c26.6-10.8 56.8-53.2 56.8-53.2s-41-6.7-73.2 22.5c-3.6 3.1-8.2 7.2-9.7 15.9-.6 7.7 3 24.1 26.1 14.8z" style="" fill="#e3c566" data-original="#f6c358" class="" opacity="1"></path><path d="M262.028 78.9s-30.2 42.5-56.8 53.2c-15.4 6.1-22 1-24.6-5.1l81.4-48.1z" style="" fill="#ecdb9b" data-original="#fcd462" class="" opacity="1"></path><path d="M160.128 158.8c0-28.7-28.7-72.2-28.7-72.2s-21.5 35.3-6.1 76.3c1.5 4.6 3.6 10.2 11.3 14.8 7.1 3.6 23.5 6.1 23.5-18.9z" style="" fill="#e3c566" data-original="#f6c358" class="" opacity="1"></path><path d="M131.428 86.6s28.7 44 28.7 72.2c0 16.4-7.2 21-13.8 21l-14.9-93.2z" style="" fill="#ecdb9b" data-original="#fcd462" class="" opacity="1"></path><path d="M184.228 185.4c26.6-9.7 58.9-51.2 58.9-51.2s-40.4-8.2-73.7 20c-3.6 3.1-8.7 6.7-10.2 15.9-1.7 7.1 1.4 24 25 15.3z" style="" fill="#e3c566" data-original="#f6c358" class="" opacity="1"></path><path d="M243.128 134.2s-31.7 41.5-58.9 51.2c-15.4 5.6-22 .5-24.6-6.1l83.5-45.1z" style="" fill="#ecdb9b" data-original="#fcd462" class="" opacity="1"></path><path d="M139.128 215.1c0-28.7-28.7-72.2-28.7-72.2s-21.5 35.3-6.1 76.3c1.5 4.6 3.6 10.2 11.3 14.8 7.1 3.6 23.5 6.2 23.5-18.9z" style="" fill="#e3c566" data-original="#f6c358" class="" opacity="1"></path><path d="M110.428 142.9s28.7 44 28.7 72.2c0 16.4-7.2 21-13.8 21l-14.9-93.2z" style="" fill="#ecdb9b" data-original="#fcd462" class="" opacity="1"></path><path d="M163.228 243.2c27.6-6.7 63.5-45.1 63.5-45.1s-39.4-12.3-75.3 12.3c-4.1 2.6-9.2 5.6-11.8 14.3-2 7.8-1 24.7 23.6 18.5z" style="" fill="#e3c566" data-original="#f6c358" class="" opacity="1"></path><path d="M226.728 198.2s-35.8 37.9-63.5 45.1c-15.9 4.1-22-2-23.6-8.7l87.1-36.4z" style="" fill="#ecdb9b" data-original="#fcd462" class="" opacity="1"></path><path d="M120.228 281.6c0-28.7-28.7-72.2-28.7-72.2s-21.5 35.3-6.1 76.3c1.5 4.6 3.6 10.2 11.3 14.8 7.1 3.7 23.5 6.2 23.5-18.9z" style="" fill="#e3c566" data-original="#f6c358" class="" opacity="1"></path><path d="M91.528 209.4s28.7 44 28.7 72.2c0 16.4-7.2 21-13.8 21l-14.9-93.2z" style="" fill="#ecdb9b" data-original="#fcd462" class="" opacity="1"></path><path d="M145.328 306.7c27.1-9.2 59.4-50.2 59.4-50.2s-40.4-8.7-74.2 18.9c-3.6 3.1-8.7 6.7-10.2 15.4-1.7 7.2 1.4 24.1 25 15.9z" style="" fill="#e3c566" data-original="#f6c358" class="" opacity="1"></path><path d="M204.728 256s-32.3 41-59.4 50.2c-15.9 5.6-22 0-24.6-6.7l84-43.5z" style="" fill="#ecdb9b" data-original="#fcd462" class="" opacity="1"></path><path d="M186.228 413.1c-.4 0-.8-.1-1.2-.2-1.8-.7-2.8-2.7-2.1-4.5 63.1-174 105.3-208.6 107.1-209.9 1.5-1.2 3.7-.9 4.9.6 1.2 1.5.9 3.7-.6 4.9-.5.4-42.8 35.6-104.9 206.8-.4 1.5-1.7 2.3-3.2 2.3z" style="" fill="#dcb043" data-original="#dc8744" class="" opacity="1"></path><path d="M304.528 202.8c16.4-12.8 28.7-49.2 28.7-49.2s-29.7 3.6-46.6 30.7c-1.5 3.1-4.6 6.7-3.1 13.3 1 6.2 6.7 17 21 5.2z" style="" fill="#e3c566" data-original="#f6c358" class="" opacity="1"></path><path d="M333.228 154.2s-12.3 35.8-28.7 49.2c-9.2 7.7-15.4 5.1-18.4 1.5l47.1-50.7z" style="" fill="#ecdb9b" data-original="#fcd462" class="" opacity="1"></path><path d="M280.428 210.5c2.6-19.5-12.3-52.2-12.3-52.2s-17.9 22-11.3 51.7c.5 3.1 1.5 7.2 6.1 11.3 4.2 3 15.5 6.1 17.5-10.8z" style="" fill="#e3c566" data-original="#f6c358" class="" opacity="1"></path><path d="M268.128 158.2s15.4 32.8 12.3 52.2c-1.5 11.3-7.2 13.8-11.8 12.8l-.5-65z" style="" fill="#ecdb9b" data-original="#fcd462" class="" opacity="1"></path><path d="M289.128 239.7c18.9-4.6 44-30.7 44-30.7s-27.1-8.7-52.2 8.2c-2.6 2-6.1 4.1-8.2 10.2-1 5.1 0 16.4 16.4 12.3z" style="" fill="#e3c566" data-original="#f6c358" class="" opacity="1"></path><path d="M333.228 208.9s-25.1 26.1-44 30.7c-11.3 2.6-15.4-1.5-16.4-6.1l60.4-24.6z" style="" fill="#ecdb9b" data-original="#fcd462" class="" opacity="1"></path><path d="M255.928 254c2.6-19.5-12.3-52.2-12.3-52.2s-17.9 22-11.3 51.7c.5 3.1 1.5 7.2 6.1 11.3 4.1 2.5 15.4 6.1 17.5-10.8z" style="" fill="#e3c566" data-original="#f6c358" class="" opacity="1"></path><path d="M243.628 201.8s15.4 32.8 12.3 52.2c-1.5 11.3-7.2 13.8-11.8 12.8l-.5-65z" style="" fill="#ecdb9b" data-original="#fcd462" class="" opacity="1"></path><path d="M269.728 274.5c19.5-4.1 45.1-29.2 45.1-29.2s-27.1-9.7-52.2 6.7c-2.6 1.5-6.7 3.6-8.2 9.7-2.1 4.6-1.6 15.8 15.3 12.8z" style="" fill="#e3c566" data-original="#f6c358" class="" opacity="1"></path><path d="M314.728 244.8s-25.6 25.1-45.1 29.2c-11.3 2.6-15.4-2-15.9-6.7l61-22.5z" style="" fill="#ecdb9b" data-original="#fcd462" class="" opacity="1"></path><path d="M235.928 290.3c2.6-19.5-12.3-52.2-12.3-52.2s-17.9 22-11.3 51.7c.5 3.1 1.5 7.2 6.1 11.3 4.2 2.6 15.4 6.1 17.5-10.8z" style="" fill="#e3c566" data-original="#f6c358" class="" opacity="1"></path><path d="M223.628 238.1s15.4 32.8 12.3 52.2c-1.5 11.3-7.2 13.8-11.8 12.8l-.5-65z" style="" fill="#ecdb9b" data-original="#fcd462" class="" opacity="1"></path><path d="M249.728 311.8c19.5-2 47.6-24.6 47.6-24.6s-25.6-12.3-52.7 1c-3.1 1.5-6.7 3.1-9.2 8.7-2.1 5.2-2.6 16.5 14.3 14.9z" style="" fill="#e3c566" data-original="#f6c358" class="" opacity="1"></path><path d="M297.828 287.3s-28.2 22.5-47.6 24.6c-11.3 1-14.8-3.6-15.4-8.2l63-16.4z" style="" fill="#ecdb9b" data-original="#fcd462" class="" opacity="1"></path><path d="M216.928 333.9c2.6-19.5-12.3-52.2-12.3-52.2s-17.9 22-11.3 51.7c.5 3.1 1.5 7.2 6.1 11.3 4.2 3 15 6.1 17.5-10.8z" style="" fill="#e3c566" data-original="#f6c358" class="" opacity="1"></path><path d="M204.728 281.6s15.4 32.8 12.3 52.2c-1.5 11.3-7.2 13.8-11.8 12.8l-.5-65z" style="" fill="#ecdb9b" data-original="#fcd462" class="" opacity="1"></path><path d="M231.828 353.3c19.5-3.6 45.6-28.7 45.6-28.7s-26.6-9.7-52.2 5.6c-2.6 1.5-6.7 3.6-8.7 9.7-2.1 5.2-1.6 16.5 15.3 13.4z" style="" fill="#e3c566" data-original="#f6c358" class="" opacity="1"></path><path d="M276.828 324.6s-26.1 25.1-45.6 28.7c-11.3 2-15.4-2-15.9-6.7l61.5-22z" style="" fill="#ecdb9b" data-original="#fcd462" class="" opacity="1"></path></g></svg>