<svg xmlns="http://www.w3.org/2000/svg" version="1.1" width="512" height="512" x="0" y="0" viewBox="0 0 512 512" style="enable-background:new 0 0 512 512" xml:space="preserve" class=""><g><path fill="#7dd1e3" d="M388.685 268.814c-107.703 7.123-197.892-88.337-191.395-189.348 3.723-57.883 61.054-97.397 110.727-71.223 23.22 12.235 28.684 36.002 36.417 58.721 4.547 13.358 2.688 38.502 12.874 48.579 10.535 10.423 31.404 3.519 45.379 8.072 22.544 7.345 45.86 12.891 58 35.467 26.385 49.066-15.223 105.977-72.002 109.732z" opacity="1" data-original="#85667d" class=""></path><path fill="#40b4d0" d="M460.687 159.083c-12.141-22.576-35.456-28.122-58-35.467-13.975-4.553-34.844 2.35-45.379-8.072-10.186-10.077-8.327-35.222-12.874-48.579-7.733-22.719-13.197-46.485-36.417-58.721-19.567-10.31-40.322-10.428-58.52-3.245a74.116 74.116 0 0 1 7.011 3.245c23.22 12.235 28.684 36.002 36.417 58.721 4.547 13.358 19.095 41.72 58.253 56.652 22.154 8.448 45.86 12.891 58 35.467 24.335 45.252-9.167 97.178-59.065 107.922a170.907 170.907 0 0 0 38.572 1.81c56.779-3.757 98.387-60.668 72.002-109.733z" opacity="1" data-original="#7d5c75" class=""></path><path fill="#ecdb9b" d="M300.901 294.108c-52.294 93.57-182.24 117.19-264.524 57.267-47.152-34.338-49.659-103.423-.517-130.68 23.113-12.82 46.404-4.366 70.04 1.457 0 0 29.029 17.29 42.96 14.274 11.438-2.476 28.846-26.562 28.846-26.562 21.43-15.898 39.81-37.301 68.988-34.957 55.973 4.497 81.776 69.872 54.207 119.201z" opacity="1" data-original="#ff525a" class=""></path><path fill="#e3c566" d="M246.695 174.908c-10.844-.871-20.196 1.538-28.768 5.725 39.685 17.725 54.964 71.429 31.465 113.476-28.461 50.926-79.925 81.132-134.187 88.425 71.046 9.689 148.265-21.448 185.696-88.425 27.569-49.33 1.766-114.705-54.206-119.201z" opacity="1" data-original="#f73b44" class=""></path><path fill="#7dd1e3" d="M482.939 467.369c-79.862 72.053-210.473 53.109-268.86-29.858-33.458-47.543-13.394-113.82 41.95-124.024 26.214-4.833 45.591 10.84 66.223 23.933 11.703 7.427 24.816 20.484 38.803 22.037 15.381 1.708 28.901-9.511 43.234-14.829 21.702-8.052 42.961-17.385 66.077-7.48 51.494 22.065 54.675 92.235 12.573 130.221z" opacity="1" data-original="#85667d" class=""></path><path fill="#40b4d0" d="M470.366 337.149c-16.991-7.28-32.978-4.168-48.876 1.191 48.956 23.297 51.311 91.702 9.939 129.029-26.941 24.307-59.656 38.257-93.426 42.888 50.658 6.845 104.35-6.271 144.935-42.888 42.103-37.986 38.922-108.156-12.572-130.22z" opacity="1" data-original="#7d5c75" class=""></path><path fill="#b2e5ef" d="M402.687 123.613s-33.664 29.025-58.252-.507c-21.902-26.306 0-56.143 0-56.143s8.524 25.988 20.062 36.431c14.095 12.759 38.19 20.219 38.19 20.219z" opacity="1" data-original="#6e5167" class=""></path><path fill="#dcb043" d="M177.702 209.857s9.963 37.901-28.497 44.082-43.303-31.791-43.303-31.791 14.625 6.541 38.064 3.456 33.736-15.747 33.736-15.747z" opacity="1" data-original="#e82c35" class=""></path><path fill="#b2e5ef" d="M399.856 346.241s-3.891 38.026-41.182 35.098c-36.366-2.856-36.42-43.923-36.42-43.923s23.223 14.946 37.795 15.582c19.916.869 39.807-6.757 39.807-6.757z" opacity="1" data-original="#6e5167" class=""></path></g></svg>