<svg xmlns="http://www.w3.org/2000/svg" version="1.1" xmlns:xlink="http://www.w3.org/1999/xlink" width="512" height="512" x="0" y="0" viewBox="0 0 480 480" style="enable-background:new 0 0 512 512" xml:space="preserve" class=""><g><path fill="#ecdb9b" d="M432 232v42.336a48.012 48.012 0 0 1-26.535 42.937L352 344H128l-53.465-26.734A48 48 0 0 1 48 274.336V232" opacity="1" data-original="#efbe9a" class=""></path><path fill="#dcb043" d="M416 120h14.68c27.242 0 49.32 22.078 49.32 49.32 0 14.399-6.29 28.07-17.223 37.45L312 336H168L17.223 206.762A49.315 49.315 0 0 1 0 169.32C0 142.078 22.078 120 49.32 120H64" opacity="1" data-original="#db9b7c" class=""></path><path fill="#ecdb9b" d="M360 72h4.777C397.488 72 424 98.512 424 131.223a59.226 59.226 0 0 1-12.977 37L296 312H184L68.977 168.223a59.226 59.226 0 0 1-12.977-37C56 98.512 82.512 72 115.223 72H120" opacity="1" data-original="#efbe9a" class=""></path><path fill="#dcb043" d="M296 32h4c33.137 0 60 26.863 60 60 0 7.922-1.566 15.77-4.617 23.078L280 296h-80l-75.383-180.922A59.918 59.918 0 0 1 120 92c0-33.137 26.863-60 60-60h4" opacity="1" data-original="#db9b7c" class=""></path><path fill="#ecdb9b" d="M224 296 184 64V32c0-17.672 14.328-32 32-32h48c17.672 0 32 14.328 32 32v32l-40 232" opacity="1" data-original="#efbe9a" class=""></path><path fill="#bb7424" d="M314.793 339.566C410.719 348.992 480 376.07 480 408c0 39.77-107.45 72-240 72S0 447.77 0 408c0-31.93 69.281-59.008 165.207-68.434" opacity="1" data-original="#976947" class=""></path><path fill="#b2e5ef" d="M320 368c0 44.184-35.816 80-80 80s-80-35.816-80-80 35.816-80 80-80 80 35.816 80 80zm0 0" opacity="1" data-original="#e8eff4" class=""></path><path fill="#d3942d" d="M240 480c132.55 0 240-32.23 240-72l-51.938 14.168a279.147 279.147 0 0 1-171.46-7.945L223.39 401.77A279.241 279.241 0 0 0 125.383 384a279.153 279.153 0 0 0-73.445 9.832L0 408c0 39.77 107.45 72 240 72zm0 0" opacity="1" data-original="#c18e59" class=""></path><path fill="#effafc" d="M296 368h-16c0-22.055-17.945-40-40-40v-16c30.879 0 56 25.129 56 56zm0 0" opacity="1" data-original="#ffffff" class=""></path></g></svg>