<svg xmlns="http://www.w3.org/2000/svg" version="1.1" xmlns:xlink="http://www.w3.org/1999/xlink" width="512" height="512" x="0" y="0" viewBox="0 0 512 512.001" style="enable-background:new 0 0 512 512" xml:space="preserve" class=""><g><path fill="#e3c566" d="M270.938 307.934c9.402-12.961 24.671-21.391 41.91-21.391h3.03c.446-17.895 15.083-32.266 33.087-32.266h13.789v32.266h3.012c28.578 0 51.742 23.168 51.742 51.742 14.289 0 25.87 11.582 25.87 25.871v26.547H270.696v-82.77" opacity="1" data-original="#ffd150" class=""></path><path fill="#dcb043" d="M417.508 338.285c0-28.574-23.168-51.742-51.742-51.742h-3.012v-32.266H348.96c-14.672 0-27.11 9.551-31.445 22.774v9.492h3.011c28.575 0 51.739 23.164 51.739 51.742 14.289 0 25.87 11.582 25.87 25.871v26.547h45.243v-26.547c0-14.289-11.586-25.87-25.871-25.87zm0 0" opacity="1" data-original="#ffc930" class=""></path><path fill="#b2e5ef" d="M264.527 370.398h196.664v19.715c0 67.317-54.57 121.887-121.886 121.887-27.254 0-52.422-8.945-72.723-24.063zm0 0" opacity="1" data-original="#7f8a91" class=""></path><path fill="#40b4d1" d="M415.953 370.398v19.715c0 59.57-42.738 109.153-99.223 119.774A122.483 122.483 0 0 0 339.305 512c67.316 0 121.886-54.57 121.886-121.887v-19.718h-45.238zm0 0" opacity="1" data-original="#6b7c85" class=""></path><path fill="#e3c566" d="m215.992 150.879 58.809 173.68a212.058 212.058 0 0 1-15.442 170.914 40.09 40.09 0 0 1-32.203 16.218H58.844a40.083 40.083 0 0 1-32.2-16.218 212.043 212.043 0 0 1-15.44-170.914l58.808-173.68zm0 0" opacity="1" data-original="#ffd150" class=""></path><path fill="#dcb043" d="m274.8 324.559-58.808-173.68h-55.52l58.805 173.68a212.043 212.043 0 0 1-15.441 170.914 40.083 40.083 0 0 1-32.2 16.218h55.52c12.696 0 24.64-6.02 32.203-16.218a212.058 212.058 0 0 0 15.442-170.914zm0 0" opacity="1" data-original="#ffc930" class=""></path><path fill="#2597b5" d="m183.219 142.469-22.176-131.34A13.351 13.351 0 0 0 147.879 0h-9.754a13.351 13.351 0 0 0-13.164 11.129l-22.176 131.34" opacity="1" data-original="#4c585e" class=""></path><path fill="#b2e5ef" d="M225.355 150.66H60.645c-13.434 0-24.325-10.89-24.325-24.32v-14.988c0-13.434 10.89-24.325 24.325-24.325h164.71c13.438 0 24.325 10.891 24.325 24.325v14.988c0 13.43-10.887 24.32-24.325 24.32zm0 0" opacity="1" data-original="#7f8a91" class=""></path><path fill="#40b4d1" d="M225.355 87.027h-45.238c13.434 0 24.324 10.891 24.324 24.325v14.988c0 13.433-10.89 24.32-24.324 24.32h45.238c13.434 0 24.325-10.89 24.325-24.32v-14.988c0-13.434-10.887-24.325-24.325-24.325zm0 0" opacity="1" data-original="#6b7c85" class=""></path><g fill="#4c585e"><path d="M86.793 118.621a7.712 7.712 0 0 0-7.711 7.711v24.328h15.422v-24.328a7.712 7.712 0 0 0-7.711-7.71zM143 118.621a7.712 7.712 0 0 0-7.71 7.711v24.328h15.42v-24.328a7.71 7.71 0 0 0-7.71-7.71zM199.21 118.621a7.71 7.71 0 0 0-7.71 7.711v24.328h15.422v-24.328a7.712 7.712 0 0 0-7.711-7.71zm0 0" fill="#2597b5" opacity="1" data-original="#4c585e" class=""></path></g><path fill="#f6eecf" d="M193.535 309.559v14.035c15.219 0 26.399 14.293 22.735 29.066l-21.801 87.91H91.53l-21.8-87.91c-3.665-14.773 7.515-29.066 22.738-29.066v-14.035c0-27.907 22.625-50.532 50.531-50.532 27.91 0 50.535 22.625 50.535 50.532zm0 0" opacity="1" data-original="#fff7d7" class=""></path><path fill="#d3942d" d="M253.316 402.922c-4.289-.211-7.863 3.09-8.062 7.344-.711 15.242-4.606 29.37-11.582 42.004-5.192 9.394-10.258 14.425-10.402 14.57a7.71 7.71 0 0 0 5.355 13.258 7.68 7.68 0 0 0 5.336-2.145c1.008-.965 24.707-24.144 26.7-66.969a7.712 7.712 0 0 0-7.345-8.062zm0 0" opacity="1" data-original="#f2aa00" class=""></path></g></svg>