<svg xmlns="http://www.w3.org/2000/svg" version="1.1" xmlns:xlink="http://www.w3.org/1999/xlink" width="512" height="512" x="0" y="0" viewBox="0 0 512 512" style="enable-background:new 0 0 512 512" xml:space="preserve" class=""><g><path fill="#dcb043" d="M353.993 8.186c-9.954 7.622-24.463 14.29-45.568 18.079-67.367 12.091-123.072 39.732-141.218 128.415-3.897 19.043-17.065 34.875-34.985 42.404-38.865 16.327-101.611 53.185-104.91 121.807-1.854 38.576 14.975 62.957 38.802 76.8l36.138-12.733L389.55 54.666l20.318-37.957c-12.16-17.857-37.607-22.512-55.875-8.523z" opacity="1" data-original="#ebb865" class=""></path><path fill="#ecdb9b" d="M413.925 24.38a38.744 38.744 0 0 0-4.057-7.672c-12.468 2.933-38.323 11.068-68.574 32.353-42.617 29.986-135.482 137.471-135.482 137.471L86.003 306.625s-24.551 38.829-19.89 89.066c37.722 21.916 92.993 17.41 119.504.914 32.846-20.437 62.388-67.66 72.953-111.052 5.291-21.73 21.852-38.87 43.337-45.078 25.187-7.277 58.074-23.023 85.191-57.066 37.59-47.187 48.438-103.946 26.827-159.029z" opacity="1" data-original="#fccc80" class=""></path><path fill="#ecdb9b" d="M408.432 434.295a105.902 105.902 0 0 0-3.548-9.472l-24.521-48.991-29.959-6.764a59.19 59.19 0 0 0-18.964-1.403c-7.243.641-13.763.558-19.621-.034l-20.524 32.412 71.599 92.461 43.672-16.85c5.347-12.145 6.635-26.417 1.866-41.359z" opacity="1" data-original="#e79380" class=""></path><path fill="#dcb043" d="M364.598 466.213c-25.132-16.601-48.6-46.114-52.78-98.583-6.25-.632-11.746-1.843-16.535-3.393-15.131-4.897-30.783 6.056-30.785 21.96-.011 63.283 25.7 97.334 53.439 115.656 33.828 22.345 74.805 5.189 88.629-26.2-13.664 2.124-28.391-.472-41.968-9.44z" opacity="1" data-original="#df7e66" class=""></path><path fill="#dcb043" d="M92.704 318.188a7.726 7.726 0 0 1-6.701-11.562c30.163-52.764 62.4-78.147 85.939-96.681 11.587-9.123 20.74-16.33 26.012-23.992 62.598-90.974 140.073-135.059 143.34-136.891a7.727 7.727 0 0 1 7.561 13.476c-.77.433-77.709 44.304-138.171 132.175-6.601 9.593-16.566 17.44-29.182 27.373-22.542 17.749-53.414 42.056-82.083 92.209a7.727 7.727 0 0 1-6.715 3.893zM135.278 359.988a7.727 7.727 0 0 1-3.925-14.387c49.101-28.896 75.171-67.94 88.395-95.606 8.506-17.795 21.621-33.399 37.926-45.125C347.675 140.149 365.01 79.745 365.175 79.142c1.121-4.107 5.355-6.544 9.469-5.436 4.11 1.108 6.553 5.321 5.458 9.435-.709 2.663-18.449 65.99-113.405 134.274-14.204 10.215-25.617 23.785-33.007 39.244-14.153 29.609-42.036 71.385-94.5 102.26a7.698 7.698 0 0 1-3.912 1.069z" opacity="1" data-original="#daac5d" class=""></path><path fill="#dcb043" d="M361.512 147.715a7.72 7.72 0 0 1-6.61-3.714c-31.118-51.193-69.413-66.072-69.796-66.217a7.726 7.726 0 0 1 5.447-14.461c1.768.666 43.696 16.951 77.554 72.652a7.726 7.726 0 0 1-6.595 11.74zM295.955 213.021a7.72 7.72 0 0 1-6.61-3.714c-31.117-51.193-69.413-66.073-69.796-66.217a7.726 7.726 0 0 1 5.447-14.461c1.768.666 43.697 16.951 77.554 72.652a7.726 7.726 0 0 1-6.595 11.74zM174.836 347.915a7.72 7.72 0 0 1-6.61-3.714c-31.117-51.193-69.412-66.073-69.795-66.217-3.993-1.504-6.011-5.96-4.507-9.954s5.963-6.013 9.954-4.507c1.768.666 43.696 16.951 77.553 72.652a7.726 7.726 0 0 1-6.595 11.74zM211.16 318.169a7.72 7.72 0 0 1-6.61-3.714c-34.468-56.705-76.968-73.217-77.394-73.377a7.726 7.726 0 0 1 5.447-14.461c1.94.73 47.943 18.6 85.151 79.812a7.726 7.726 0 0 1-6.594 11.74zM339.78 191.901a7.72 7.72 0 0 1-6.61-3.714c-39.79-65.46-89.457-85.016-89.954-85.205-3.98-1.521-5.987-5.979-4.475-9.961a7.72 7.72 0 0 1 9.939-4.494c2.224.838 54.956 21.321 97.695 91.634a7.726 7.726 0 0 1-6.595 11.74z" opacity="1" data-original="#daac5d" class=""></path><path fill="#ecdb9b" d="M480.009 391.848c5.348-12.144 6.635-26.415 1.866-41.357-5.841-18.303-16.752-34.266-27.13-46.399-12.354-14.442-30.932-21.908-49.863-20.232-7.244.641-13.763.557-19.621-.035l-10.263 23.498 52.54 98.642z" opacity="1" data-original="#e79380" class=""></path><path fill="#dcb043" d="M438.042 382.408c-25.132-16.601-48.6-46.115-52.78-98.583-6.25-.632-11.746-1.843-16.535-3.393-15.131-4.897-30.782 6.056-30.785 21.96-.011 63.283 25.701 97.334 53.439 115.656 33.828 22.345 74.806 5.189 88.629-26.2-13.664 2.124-28.391-.471-41.968-9.44z" opacity="1" data-original="#df7e66" class=""></path></g></svg>