<svg xmlns="http://www.w3.org/2000/svg" version="1.1" xmlns:xlink="http://www.w3.org/1999/xlink" width="512" height="512" x="0" y="0" viewBox="0 0 200 200" style="enable-background:new 0 0 512 512" xml:space="preserve" class=""><g><path d="M91.352 69.306c.083 1.722-.606 3.57-1.968 4.789l-14.72 13.78 3.714 94.897c-.048 22.69-32.687 22.918-33.198 0l3.714-94.896-14.72-13.781c-1.37-1.178-2.005-3.062-1.925-4.833l2.864-64.875c.362-5.933 9.396-5.636 9.215.446l-1.883 42.158c-.022 2.714 2.45 3.088 4.614 2.898a2.774 2.774 0 0 0 2.774-2.774V4.835c.005-6.183 9.006-6.438 9.171-.224v42.504c.017 3.634 5.534 3.622 5.55 0V4.834c0-2.222 1.474-4.28 3.65-4.733 2.917-.605 5.52 1.64 5.52 4.508v42.505c.034 2.627 2.587 2.962 4.66 2.774a2.774 2.774 0 0 0 2.772-2.898L79.27 4.833c-.133-2.55 1.835-4.697 4.385-4.83 2.505-.09 4.653 1.879 4.788 4.385zM147.325 88.188l3.668 94.584c.179 4.561-1.477 8.902-4.654 12.168-10.076 11.004-29.4 2.747-28.544-12.169l3.711-94.583c-14.003-10.738-21.654-27.963-20.579-46.666 1.109-25.181 21.078-50.027 45.323-38.568 28.998 15.474 27.998 66.803 1.074 85.234z" fill="#497d33" opacity="1" data-original="#000000" class=""></path></g></svg>