<svg xmlns="http://www.w3.org/2000/svg" version="1.1" xmlns:xlink="http://www.w3.org/1999/xlink" width="512" height="512" x="0" y="0" viewBox="0 0 490 490" style="enable-background:new 0 0 512 512" xml:space="preserve" class=""><g><path d="M225.654 300.749c-18.14 21.2-35.7 33.74-35.7 33.74s-104.01-23.21-123.78-103.19c-.37-1.45-.7-2.93-1-4.42-16.95-83.56 6.5-165.92 56.92-226.87 70.18 36.48 123.88 103.19 140.83 186.75 9.46 46.62-14.36 87.22-37.27 113.99z" style="" fill="#40b4d0" data-original="#5b5b68" class="" opacity="1"></path><path d="M122.227 215.295c16.819 82.904 66.938 118.629 67.715 119.181-1.662-.373-107.95-24.703-124.769-107.606C48.221 143.313 71.679 60.958 122.099 0c-15.63 53.9-16.824 131.738.128 215.295z" style="" fill="#217a99" data-original="#40404c" class="" opacity="1"></path><path d="M172.199 254.523a7.501 7.501 0 0 1-7.342-6.01L129.263 73.071a7.498 7.498 0 0 1 5.859-8.841 7.498 7.498 0 0 1 8.841 5.859l35.593 175.441a7.498 7.498 0 0 1-5.859 8.841 7.452 7.452 0 0 1-1.498.152zM225.654 300.749c-18.14 21.2-35.7 33.74-35.7 33.74s-104.01-23.21-123.78-103.19c58.4 2.39 115.71 25.93 159.48 69.45z" style="" fill="#217a99" data-original="#40404c" class="" opacity="1"></path><path d="M231.35 204.446c-59.225 61.332-17.915 163.794-17.915 163.794s103.843 37.703 163.068-23.629c59.224-61.332 83.739-143.384 74.007-221.882-78.791-6.983-159.936 20.385-219.16 81.717z" style="" fill="#40b4d0" data-original="#5b5b68" class="" opacity="1"></path><path d="M273.232 244.882c-58.761 60.853-59.78 122.392-59.795 123.345-.635-1.581-40.845-102.932 17.916-163.785 59.224-61.332 140.366-88.693 219.166-81.713-53.263 17.679-118.063 60.821-177.287 122.153z" style="" fill="#217a99" data-original="#40404c" class="" opacity="1"></path><path d="M267.994 319.238a7.5 7.5 0 0 1-5.37-12.734l79.297-81.353 26.841-27.796 25.549-27.223a7.5 7.5 0 0 1 10.937 10.265l-25.585 27.262-.074.078-26.902 27.86-79.322 81.377a7.478 7.478 0 0 1-5.371 2.264z" style="" fill="#217a99" data-original="#40404c" class="" opacity="1"></path><path d="M92.166 451.886c48.017 58.349 142.413 32.334 142.413 32.334s43.697-87.624-4.32-145.973c-48.016-58.349-117.787-88.23-187.89-87.597-14.114 68.67 1.781 142.887 49.797 201.236z" style="" fill="#dcb043" data-original="#ffca5e" class="" opacity="1"></path><path d="M132.005 419.096c47.641 57.893 101.725 65.011 102.563 65.121-1.456.399-94.764 25.559-142.405-32.334-48.016-58.349-63.905-132.563-49.792-201.242 10.181 48.687 41.618 110.106 89.634 168.455z" style="" fill="#bb7424" data-original="#e8a328" class="" opacity="1"></path></g></svg>