<svg xmlns="http://www.w3.org/2000/svg" version="1.1" xmlns:xlink="http://www.w3.org/1999/xlink" width="512" height="512" x="0" y="0" viewBox="0 0 512 512" style="enable-background:new 0 0 512 512" xml:space="preserve" class=""><g><path fill="#bb7424" d="M207.38 63.17h-33.7a7 7 0 1 1 0-14h33.7a7 7 0 1 1 0 14z" opacity="1" data-original="#82161a" class=""></path><path fill="#b2e5ef" d="M339.93 234.8c-11.56 1.67-23.18 2.45-34.56 2.45-7.521 0-16.3-1.26-23.82-2.51-20.06-2.51-38.86-11.28-58.92-16.3-14.39-3.6-28.77-5.59-43.05-6 16-47.98 30.26-94.1 32.14-126.26h88.56c2.17 37.14 20.85 92.89 39.65 148.62z" opacity="1" data-original="#d9e9f7" class=""></path><path fill="#7f4421" d="M380.58 391.55c0 70.721-22.51 94.29-22.51 94.29H153.93s-22.51-23.569-22.51-94.29c0-41.239 25.78-111.989 48.16-179.11 14.28.41 28.66 2.4 43.05 6 20.06 5.02 38.86 13.79 58.92 16.3 7.521 1.25 16.3 2.51 23.82 2.51 11.38 0 23-.78 34.56-2.45h.011c20.249 60.051 40.639 120.08 40.639 156.75z" opacity="1" data-original="#634027" class=""></path><path fill="#bb7424" d="M303.96 26.16h-95.93c-2.75 0-4.68 2.23-4.28 4.95l1.82 12.55 6.15 42.52h88.56l6.149-42.52 1.82-12.55c.391-2.72-1.539-4.95-4.289-4.95z" opacity="1" data-original="#cb2027" class=""></path><path fill="#69391e" d="M347.524 431.813a7.001 7.001 0 0 1-6.938-7.997c8.382-58.3-20.389-125.931-20.68-126.607a7 7 0 0 1 12.852-5.55c1.256 2.906 30.638 71.878 21.685 134.149a7 7 0 0 1-6.919 6.005z" opacity="1" data-original="#5b3a2c" class=""></path></g></svg>