<svg width="239" height="164" xmlns="http://www.w3.org/2000/svg" xmlns:xlink="http://www.w3.org/1999/xlink" xml:space="preserve" overflow="hidden"><g transform="translate(-2120 -2737)"><path d="M2294 2747.5C2294 2753.3 2289.3 2758 2283.5 2758 2277.7 2758 2273 2753.3 2273 2747.5 2273 2741.7 2277.7 2737 2283.5 2737 2289.3 2737 2294 2741.7 2294 2747.5Z" fill="#D2BBD3" fill-rule="evenodd"/><path d="M2283.5 2761C2286.35 2761 2289.2 2761.51 2292.05 2762.03 2296.2 2763.31 2299.82 2765.11 2302.93 2767.68 2303.71 2768.45 2304.23 2769.48 2304.49 2770.51L2311.74 2801.08C2311.74 2801.34 2312 2801.85 2312 2802.37 2312 2805.19 2309.67 2807.51 2306.82 2807.51 2304.49 2807.51 2302.41 2805.71 2301.9 2803.65L2296.45 2781.3 2296.45 2846.87C2297.04 2849.95 2286.22 2852.01 2285.76 2846.87L2283.79 2807.25 2281.32 2846.87C2280.84 2849.95 2270.77 2851.49 2270.55 2846.87L2270.55 2781.55 2265.1 2803.91C2264.59 2805.96 2262.51 2807.76 2260.18 2807.76 2257.33 2807.76 2255 2805.45 2255 2802.62 2255 2802.11 2255.26 2801.6 2255.26 2801.34L2262.51 2770.76C2262.77 2769.74 2263.29 2768.71 2264.07 2767.94 2267.18 2765.37 2270.8 2763.31 2274.95 2762.28 2277.8 2761.51 2280.65 2761 2283.5 2761Z" fill="#D2BBD3" fill-rule="evenodd"/><path d="M2292.25 2768 2281.16 2778.44 2275.84 2773 2274 2774.75 2281.08 2782 2282.94 2780.27 2294 2769.81Z" fill="#DCCADD" fill-rule="evenodd"/><path d="M2189 2771C2191.8 2771 2194.6 2771.51 2197.4 2772.03 2201.47 2773.31 2205.04 2775.11 2208.09 2777.68 2208.85 2778.45 2209.36 2779.48 2209.62 2780.51L2216.75 2811.08C2216.75 2811.34 2217 2811.85 2217 2812.37 2217 2815.19 2214.71 2817.51 2211.91 2817.51 2209.62 2817.51 2207.58 2815.71 2207.07 2813.65L2201.73 2791.3 2201.73 2856.87C2202.3 2859.95 2191.67 2862.01 2191.22 2856.87L2189.28 2817.25 2186.86 2856.87C2186.39 2859.95 2176.49 2861.49 2176.27 2856.87L2176.27 2791.55 2170.93 2813.91C2170.42 2815.96 2168.38 2817.76 2166.09 2817.76 2163.29 2817.76 2161 2815.45 2161 2812.62 2161 2812.11 2161.25 2811.6 2161.25 2811.34L2168.38 2780.76C2168.64 2779.74 2169.15 2778.71 2169.91 2777.94 2172.96 2775.37 2176.53 2773.31 2180.6 2772.28 2183.4 2771.51 2186.2 2771 2189 2771Z" stroke="#D2BBD3" stroke-width="2.29167" stroke-linecap="round" stroke-miterlimit="8" stroke-dasharray="0 4.58333" fill="none" fill-rule="evenodd"/><path d="M2196 2813C2196 2781.52 2215.48 2756 2239.5 2756 2263.52 2756 2283 2781.52 2283 2813 2283 2844.48 2263.52 2870 2239.5 2870 2215.48 2870 2196 2844.48 2196 2813Z" fill="#DCCADD" fill-rule="evenodd"/><path d="M2248 2766.5C2248 2772.3 2243.52 2777 2238 2777 2232.48 2777 2228 2772.3 2228 2766.5 2228 2760.7 2232.48 2756 2238 2756 2243.52 2756 2248 2760.7 2248 2766.5Z" fill="#D2BBD3" fill-rule="evenodd"/><path d="M2238 2780C2240.8 2780 2243.6 2780.51 2246.4 2781.03 2250.47 2782.31 2254.04 2784.11 2257.09 2786.68 2257.85 2787.45 2258.36 2788.48 2258.62 2789.51L2265.75 2820.08C2265.75 2820.34 2266 2820.85 2266 2821.37 2266 2824.19 2263.71 2826.51 2260.91 2826.51 2258.62 2826.51 2256.58 2824.71 2256.07 2822.65L2250.73 2800.3 2250.73 2865.87C2251.3 2868.95 2240.67 2871.01 2240.22 2865.87L2238.28 2826.25 2235.86 2865.87C2235.39 2868.95 2225.49 2870.49 2225.27 2865.87L2225.27 2800.55 2219.93 2822.91C2219.42 2824.96 2217.38 2826.76 2215.09 2826.76 2212.29 2826.76 2210 2824.45 2210 2821.62 2210 2821.11 2210.25 2820.6 2210.25 2820.34L2217.38 2789.76C2217.64 2788.74 2218.15 2787.71 2218.91 2786.94 2221.96 2784.37 2225.53 2782.31 2229.6 2781.28 2232.4 2780.51 2235.2 2780 2238 2780Z" fill="#D2BBD3" fill-rule="evenodd"/><path d="M2246.33 2787 2235.81 2797.44 2230.75 2792 2229 2793.75 2235.72 2801 2237.49 2799.27 2248 2788.81Z" fill="#DCCADD" fill-rule="evenodd"/><path d="M2200 2756.5C2200 2762.3 2195.3 2767 2189.5 2767 2183.7 2767 2179 2762.3 2179 2756.5 2179 2750.7 2183.7 2746 2189.5 2746 2195.3 2746 2200 2750.7 2200 2756.5Z" stroke="#D2BBD3" stroke-width="2.29167" stroke-linecap="round" stroke-miterlimit="8" stroke-dasharray="0 4.58333" fill="none" fill-rule="evenodd"/><path d="M17.9999 2.16106 15.8389 0 8.99993 6.83908 2.16101 0 0 2.16106 6.83895 9.00011 0 15.8392 2.16101 18.0002 8.99993 11.1612 15.8389 18.0002 17.9999 15.8392 11.1609 9.00011Z" fill="#D2BBD3" fill-rule="evenodd" transform="matrix(-1 0 0 1 2198 2779)"/><path d="M2148 2779C2150.8 2779 2153.6 2779.51 2156.4 2780.03 2160.47 2781.31 2164.04 2783.11 2167.09 2785.68 2167.85 2786.45 2168.36 2787.48 2168.62 2788.51L2175.75 2819.08C2175.75 2819.34 2176 2819.85 2176 2820.37 2176 2823.19 2173.71 2825.51 2170.91 2825.51 2168.62 2825.51 2166.58 2823.71 2166.07 2821.65L2160.73 2799.3 2160.73 2864.87C2161.3 2867.95 2150.67 2870.01 2150.22 2864.87L2148.28 2825.25 2145.86 2864.87C2145.39 2867.95 2135.49 2869.49 2135.27 2864.87L2135.27 2799.55 2129.93 2821.91C2129.42 2823.96 2127.38 2825.76 2125.09 2825.76 2122.29 2825.76 2120 2823.45 2120 2820.62 2120 2820.11 2120.25 2819.6 2120.25 2819.34L2127.38 2788.76C2127.64 2787.74 2128.15 2786.71 2128.91 2785.94 2131.96 2783.37 2135.53 2781.31 2139.6 2780.28 2142.4 2779.51 2145.2 2779 2148 2779Z" fill="#D2BBD3" fill-rule="evenodd"/><path d="M2158 2765.5C2158 2771.3 2153.3 2776 2147.5 2776 2141.7 2776 2137 2771.3 2137 2765.5 2137 2759.7 2141.7 2755 2147.5 2755 2153.3 2755 2158 2759.7 2158 2765.5Z" fill="#D2BBD3" fill-rule="evenodd"/><path d="M2155.33 2786 2144.81 2795.7 2139.75 2790.65 2138 2792.27 2144.72 2799 2146.49 2797.4 2157 2787.68Z" fill="#DCCADD" fill-rule="evenodd"/><path d="M2330 2771C2332.8 2771 2335.6 2771.51 2338.4 2772.03 2342.47 2773.31 2346.04 2775.11 2349.09 2777.68 2349.85 2778.45 2350.36 2779.48 2350.62 2780.51L2357.75 2811.08C2357.75 2811.34 2358 2811.85 2358 2812.37 2358 2815.19 2355.71 2817.51 2352.91 2817.51 2350.62 2817.51 2348.58 2815.71 2348.07 2813.65L2342.73 2791.3 2342.73 2856.87C2343.3 2859.95 2332.67 2862.01 2332.22 2856.87L2330.28 2817.25 2327.86 2856.87C2327.39 2859.95 2317.49 2861.49 2317.27 2856.87L2317.27 2791.55 2311.93 2813.91C2311.42 2815.96 2309.38 2817.76 2307.09 2817.76 2304.29 2817.76 2302 2815.45 2302 2812.62 2302 2812.11 2302.25 2811.6 2302.25 2811.34L2309.38 2780.76C2309.64 2779.74 2310.15 2778.71 2310.91 2777.94 2313.96 2775.37 2317.53 2773.31 2321.6 2772.28 2324.4 2771.51 2327.2 2771 2330 2771Z" stroke="#D2BBD3" stroke-width="2.29167" stroke-linecap="round" stroke-miterlimit="8" stroke-dasharray="0 4.58333" fill="none" fill-rule="evenodd"/><path d="M2341 2756.5C2341 2762.3 2336.3 2767 2330.5 2767 2324.7 2767 2320 2762.3 2320 2756.5 2320 2750.7 2324.7 2746 2330.5 2746 2336.3 2746 2341 2750.7 2341 2756.5Z" stroke="#D2BBD3" stroke-width="2.29167" stroke-linecap="round" stroke-miterlimit="8" stroke-dasharray="0 4.58333" fill="none" fill-rule="evenodd"/><path d="M17.9999 2.16106 15.8389 0 8.99993 6.83908 2.16101 0 0 2.16106 6.83895 9.00011 0 15.8392 2.16101 18.0002 8.99993 11.1612 15.8389 18.0002 17.9999 15.8392 11.1609 9.00011Z" fill="#D2BBD3" fill-rule="evenodd" transform="matrix(-1 0 0 1 2339 2779)"/><path d="M2247 2843.5C2247 2811.74 2266.48 2786 2290.5 2786 2314.52 2786 2334 2811.74 2334 2843.5 2334 2875.26 2314.52 2901 2290.5 2901 2266.48 2901 2247 2875.26 2247 2843.5Z" fill="#DCCADD" fill-rule="evenodd"/><path d="M2294.5 2811C2297.35 2811 2300.2 2811.51 2303.05 2812.03 2307.2 2813.31 2310.82 2815.11 2313.93 2817.68 2314.71 2818.45 2315.23 2819.48 2315.49 2820.51L2322.74 2851.08C2322.74 2851.34 2323 2851.85 2323 2852.37 2323 2855.19 2320.67 2857.51 2317.82 2857.51 2315.49 2857.51 2313.41 2855.71 2312.9 2853.65L2307.45 2831.3 2307.45 2896.87C2308.04 2899.95 2297.22 2902.01 2296.76 2896.87L2294.79 2857.25 2292.32 2896.87C2291.84 2899.95 2281.77 2901.49 2281.55 2896.87L2281.55 2831.55 2276.1 2853.91C2275.59 2855.96 2273.51 2857.76 2271.18 2857.76 2268.33 2857.76 2266 2855.45 2266 2852.62 2266 2852.11 2266.26 2851.6 2266.26 2851.34L2273.51 2820.76C2273.77 2819.74 2274.29 2818.71 2275.07 2817.94 2278.18 2815.37 2281.8 2813.31 2285.95 2812.28 2288.8 2811.51 2291.65 2811 2294.5 2811Z" fill="#D2BBD3" fill-rule="evenodd"/><path d="M2304 2797.5C2304 2803.3 2299.3 2808 2293.5 2808 2287.7 2808 2283 2803.3 2283 2797.5 2283 2791.7 2287.7 2787 2293.5 2787 2299.3 2787 2304 2791.7 2304 2797.5Z" fill="#D2BBD3" fill-rule="evenodd"/><path d="M2302.25 2818 2291.16 2828.44 2285.84 2823 2284 2824.75 2291.08 2832 2292.94 2830.27 2304 2819.81Z" fill="#DCCADD" fill-rule="evenodd"/></g></svg>