<svg width="596" height="323" xmlns="http://www.w3.org/2000/svg" xmlns:xlink="http://www.w3.org/1999/xlink" xml:space="preserve" overflow="hidden"><g transform="translate(332 -2091)"><path d="M-327 2110.5C-327 2102.49-320.508 2096-312.5 2096L-219.5 2096C-211.492 2096-205 2102.49-205 2110.5L-205 2168.5C-205 2176.51-211.492 2183-219.5 2183L-312.5 2183C-320.508 2183-327 2176.51-327 2168.5Z" stroke="#D2BBD3" stroke-width="10.3125" stroke-miterlimit="8" fill="#D2BBD3" fill-rule="evenodd"/><path d="M-170 2110.5C-170 2102.49-163.508 2096-155.5 2096L-63.5004 2096C-55.4922 2096-49.0002 2102.49-49.0002 2110.5L-49.0002 2168.5C-49.0002 2176.51-55.4922 2183-63.5004 2183L-155.5 2183C-163.508 2183-170 2176.51-170 2168.5Z" stroke="#D2BBD3" stroke-width="10.3125" stroke-miterlimit="8" fill="none" fill-rule="evenodd"/><path d="M-23 2129.5C-23 2111-8.00124 2096 10.5007 2096L225.499 2096C244.001 2096 259 2111 259 2129.5L259 2263.5C259 2282 244.001 2297 225.499 2297L10.5007 2297C-8.00124 2297-23 2282-23 2263.5Z" stroke="#D2BBD3" stroke-width="10.3125" stroke-miterlimit="8" fill="none" fill-rule="evenodd"/><path d="M178.696 2256.17 112.602 2148.18C111.754 2147.08 110.432 2146.46 109.047 2146.5L108.5 2146.5 107.953 2146.5C106.568 2146.46 105.246 2147.08 104.398 2148.18L38.3042 2256.17C37.3682 2257.49 37.2393 2259.22 37.9699 2260.66 38.7072 2261.97 40.1687 2262.68 41.6471 2262.46L175.353 2262.46C176.832 2262.68 178.293 2261.97 179.03 2260.66 179.761 2259.22 179.632 2257.49 178.696 2256.17ZM119.561 2198.78 109.047 2208.17 98.5329 2198.78 81.1511 2209.33 108.5 2164.81 135.12 2208.17Z" stroke="#D2BBD3" stroke-width="3.4375" stroke-miterlimit="8" fill="#D2BBD3" fill-rule="evenodd"/><path d="M218.861 2256.83 177.544 2190.45C176.805 2189.23 175.488 2188.49 174.073 2188.5 172.652 2188.5 171.33 2189.23 170.572 2190.45L158.5 2209.98 184.395 2252.21C186.586 2255.55 187.057 2259.74 185.662 2263.49L214.937 2263.49C217.335 2263.62 219.375 2261.75 219.495 2259.34 219.539 2258.46 219.318 2257.58 218.861 2256.83Z" stroke="#D2BBD3" stroke-width="3.4375" stroke-miterlimit="8" fill="#D2BBD3" fill-rule="evenodd"/><path d="M72.5 2164.5C72.5 2174.99 63.7699 2183.5 52.9999 2183.5 42.23 2183.5 33.4998 2174.99 33.4998 2164.5 33.4998 2154.01 42.23 2145.5 52.9999 2145.5 63.7699 2145.5 72.5 2154.01 72.5 2164.5Z" stroke="#D2BBD3" stroke-width="3.4375" stroke-miterlimit="8" fill="#D2BBD3" fill-rule="evenodd"/><path d="M-322 2225.33C-322 2217.42-315.583 2211-307.667 2211L-215.334 2211C-207.417 2211-201 2217.42-201 2225.33L-201 2282.67C-201 2290.58-207.417 2297-215.334 2297L-307.667 2297C-315.583 2297-322 2290.58-322 2282.67Z" stroke="#D2BBD3" stroke-width="10.3125" stroke-miterlimit="8" fill="none" fill-rule="evenodd"/><path d="M-170 2225.33C-170 2217.42-163.583 2211-155.667 2211L-63.3337 2211C-55.4175 2211-49.0002 2217.42-49.0002 2225.33L-49.0002 2282.67C-49.0002 2290.58-55.4175 2297-63.3337 2297L-155.667 2297C-163.583 2297-170 2290.58-170 2282.67Z" stroke="#D2BBD3" stroke-width="10.3125" stroke-miterlimit="8" fill="#D2BBD3" fill-rule="evenodd"/><path d="M-322 2337.33C-322 2329.42-315.583 2323-307.667 2323L-215.334 2323C-207.417 2323-201 2329.42-201 2337.33L-201 2394.67C-201 2402.58-207.417 2409-215.334 2409L-307.667 2409C-315.583 2409-322 2402.58-322 2394.67Z" stroke="#D2BBD3" stroke-width="10.3125" stroke-miterlimit="8" fill="none" fill-rule="evenodd"/><path d="M-170 2337.33C-170 2329.42-163.583 2323-155.667 2323L89.6667 2323C97.5828 2323 104 2329.42 104 2337.33L104 2394.67C104 2402.58 97.5828 2409 89.6667 2409L-155.667 2409C-163.583 2409-170 2402.58-170 2394.67Z" stroke="#D2BBD3" stroke-width="10.3125" stroke-miterlimit="8" fill="#D2BBD3" fill-rule="evenodd"/><path d="M138 2337.33C138 2329.42 144.417 2323 152.333 2323L244.666 2323C252.582 2323 259 2329.42 259 2337.33L259 2394.67C259 2402.58 252.582 2409 244.666 2409L152.333 2409C144.417 2409 138 2402.58 138 2394.67Z" stroke="#D2BBD3" stroke-width="10.3125" stroke-miterlimit="8" fill="none" fill-rule="evenodd"/></g></svg>