<svg width="616" height="611" xmlns="http://www.w3.org/2000/svg" xmlns:xlink="http://www.w3.org/1999/xlink" xml:space="preserve" overflow="hidden"><g transform="translate(1180 -1138)"><path d="M-1000.5 1534.5-941.626 1523-774.5 1511.5" stroke="#B8D1B7" stroke-width="4.58333" stroke-miterlimit="8" fill="none" fill-rule="evenodd"/><path d="M-927 1602.34-574 1539.79-577.796 1663-613.855 1645.94-659.403 1318" stroke="#B8D1B7" stroke-width="10.3125" stroke-miterlimit="8" fill="none" fill-rule="evenodd"/><path d="M-666.5 1739.5-639.5 1720.5" stroke="#B8D1B7" stroke-width="4.58333" stroke-miterlimit="8" fill="none" fill-rule="evenodd"/><path d="M-929.5 1701.95-819.5 1724.86-743.638 1690.5-654.5 1732.5" stroke="#B8D1B7" stroke-width="4.58333" stroke-miterlimit="8" fill="none" fill-rule="evenodd"/><path d="M-1130 1246.1-1042.72 1232.8-834 1229-686 1286" stroke="#B8D1B7" stroke-width="10.3125" stroke-miterlimit="8" fill="none" fill-rule="evenodd"/><path d="M-666.5 1145.5-772.527 1248.13-808.5 1348.86-766.847 1470.5" stroke="#B8D1B7" stroke-width="4.58333" stroke-miterlimit="8" fill="none" fill-rule="evenodd"/><path d="M-686.5 1162.5-573.274 1248-586.484 1320.2-569.5 1466.5-592.145 1542.5" stroke="#B8D1B7" stroke-width="4.58333" stroke-miterlimit="8" fill="none" fill-rule="evenodd"/><path d="M-969.5 1158.5-888.5 1229.07-958.198 1343.5" stroke="#B8D1B7" stroke-width="4.58333" stroke-miterlimit="8" fill="none" fill-rule="evenodd"/><path d="M-899.5 1297.5-914.756 1268.82-981.5 1232.5" stroke="#B8D1B7" stroke-width="4.58333" stroke-miterlimit="8" fill="none" fill-rule="evenodd"/><path d="M-806.5 1181.5-717.396 1196.72-715.5 1278.5" stroke="#B8D1B7" stroke-width="4.58333" stroke-miterlimit="8" fill="none" fill-rule="evenodd"/><path d="M-647.5 1399.5-706.202 1414.76-736.5 1449.08-708.096 1563.5" stroke="#B8D1B7" stroke-width="4.58333" stroke-miterlimit="8" fill="none" fill-rule="evenodd"/><path d="M0 0 192.249 61.9685" stroke="#B8D1B7" stroke-width="10.3125" stroke-miterlimit="8" fill="none" fill-rule="evenodd" transform="matrix(1 0 0 -1 -875 1365.97)"/><path d="M-706.251 1414.69-742.5 1325.5" stroke="#B8D1B7" stroke-width="4.58333" stroke-miterlimit="8" fill="none" fill-rule="evenodd"/><path d="M0 0 55.0343 37.9547" stroke="#B8D1B7" stroke-width="4.58333" stroke-miterlimit="8" fill="none" fill-rule="evenodd" transform="matrix(1 0 0 -1 -791.5 1487.45)"/><path d="M-643 1306-586.967 1319.86" stroke="#B8D1B7" stroke-width="10.3125" stroke-miterlimit="8" fill="none" fill-rule="evenodd"/><path d="M-685.5 1296C-685.5 1283.57-675.426 1273.5-663 1273.5-650.573 1273.5-640.5 1283.57-640.5 1296-640.5 1308.43-650.573 1318.5-663 1318.5-675.426 1318.5-685.5 1308.43-685.5 1296Z" stroke="#B8D1B7" stroke-width="4.58333" stroke-miterlimit="8" fill="#C8DBC7" fill-rule="evenodd"/><path d="M-996.5 1612C-996.5 1593.5-981.502 1578.5-963 1578.5-944.498 1578.5-929.5 1593.5-929.5 1612-929.5 1630.5-944.498 1645.5-963 1645.5-981.502 1645.5-996.5 1630.5-996.5 1612Z" stroke="#B8D1B7" stroke-width="4.58333" stroke-miterlimit="8" fill="#B8D1B7" fill-rule="evenodd"/><path d="M-734.5 1449.01-639.308 1437.5-635.5 1504.66-724.981 1508.5-734.5 1449.01Z" stroke="#B8D1B7" stroke-width="4.58333" stroke-miterlimit="8" fill="#B8D1B7" fill-rule="evenodd"/><path d="M-937.296 1519.46-952.479 1491.05-840.5 1420.98-912.622 1322.5-1026.5 1464.54-999.928 1536.5-937.296 1519.46Z" stroke="#B8D1B7" stroke-width="4.58333" stroke-miterlimit="8" fill="#B8D1B7" fill-rule="evenodd"/><path d="M-798.574 1616.5C-786.218 1616.54-772.574 1617.18-757.125 1618.36-695.33 1623.1-626.925 1693.15-585.536 1729.47L-572.5 1738.5-619.353 1738.5-622.682 1735.03C-646.114 1709.97-677.33 1673.41-712.288 1658.84-752.239 1642.19-814.322 1636.02-852.836 1645.06-891.35 1654.1-919.804 1686.55-943.373 1713.11-949.265 1719.75-954.142 1728.27-958.456 1737.45L-958.891 1738.5-1004.5 1738.5-997.782 1735.02C-990.006 1730.11-983.647 1723.91-980.45 1715.69-967.659 1682.82-926.271 1650.09-889.051 1633.86-861.135 1621.7-835.645 1616.39-798.574 1616.5Z" stroke="#B8D1B7" stroke-width="4.58333" stroke-miterlimit="8" fill="#B8D1B7" fill-rule="evenodd"/><path d="M0 0 9.58494 124.836" stroke="#B8D1B7" stroke-width="4.58333" stroke-miterlimit="8" fill="none" fill-rule="evenodd" transform="matrix(1 0 0 -1 -1074.5 1593.34)"/><path d="M0 0 111.408 41.6318" stroke="#B8D1B7" stroke-width="4.58333" stroke-miterlimit="8" fill="none" fill-rule="evenodd" transform="matrix(1 0 0 -1 -1097.5 1601.13)"/><path d="M-1139.5 1501.5-1070.44 1519.45" stroke="#B8D1B7" stroke-width="4.58333" stroke-miterlimit="8" fill="none" fill-rule="evenodd"/><path d="M0 0 46.2946 75.9137" stroke="#B8D1B7" stroke-width="4.58333" stroke-miterlimit="8" fill="none" fill-rule="evenodd" transform="matrix(1 0 0 -1 -1148.5 1676.41)"/><path d="M-1038.5 1657.71-1091.64 1703.5-1174.12 1665.61-1176.5 1594.55-1115.43 1583.5" stroke="#B8D1B7" stroke-width="4.58333" stroke-miterlimit="8" fill="none" fill-rule="evenodd"/><path d="M-1060.5 1288.5-942.078 1352.75" stroke="#B8D1B7" stroke-width="4.58333" stroke-miterlimit="8" fill="none" fill-rule="evenodd"/><path d="M-1173.5 1246.5-1072.44 1311.11" stroke="#B8D1B7" stroke-width="4.58333" stroke-miterlimit="8" fill="none" fill-rule="evenodd"/><path d="M-639.5 1437.5-569.284 1465.97" stroke="#B8D1B7" stroke-width="4.58333" stroke-miterlimit="8" fill="none" fill-rule="evenodd"/><path d="M-815.5 1747.5-861.722 1595.5-867.5 1519.5" stroke="#B8D1B7" stroke-width="4.58333" stroke-miterlimit="8" fill="none" fill-rule="evenodd"/><path d="M-747.755 1688.5-734.5 1565.24-912.5 1322.5" stroke="#B8D1B7" stroke-width="4.58333" stroke-miterlimit="8" fill="none" fill-rule="evenodd"/><path d="M-1129.42 1240.5-1139.5 1141.5-1013.5 1142.77-1041.22 1230.35-1129.42 1240.5Z" stroke="#B8D1B7" stroke-width="4.58333" stroke-miterlimit="8" fill="#B8D1B7" fill-rule="evenodd"/><path d="M-1179 1542.01-1156.21 1540.11-1009.99 1146.9-816.293 1145-803 1182.99-1032.78 1466.03-1133.42 1475.52-1171.4 1464.13-1173.3 1323.56-1078.35 1355.85-981.505 1580" stroke="#B8D1B7" stroke-width="10.3125" stroke-miterlimit="8" fill="none" fill-rule="evenodd"/><path d="M0 0 17.5765 69.5364" stroke="#B8D1B7" stroke-width="10.3125" stroke-miterlimit="8" fill="none" fill-rule="evenodd" transform="matrix(-1 0 0 1 -963.424 1645)"/><path d="M-1156 1540-980.546 1714.94" stroke="#B8D1B7" stroke-width="10.3125" stroke-miterlimit="8" fill="none" fill-rule="evenodd"/><path d="M-572.239 1737.43-577 1663" stroke="#B8D1B7" stroke-width="10.3125" stroke-miterlimit="8" fill="none" fill-rule="evenodd"/><path d="M0 0 9.38501 88.0343" stroke="#B8D1B7" stroke-width="4.58333" stroke-miterlimit="8" fill="none" fill-rule="evenodd" transform="matrix(-1 0 0 1 -613.115 1646.5)"/></g></svg>