<svg width="2764" height="513" xmlns="http://www.w3.org/2000/svg" xmlns:xlink="http://www.w3.org/1999/xlink" xml:space="preserve" overflow="hidden"><g transform="translate(-791 -880)"><path d="M1033.58 1345.81C918.686 1373.46 1991.21 1351.19 2252.8 1337.31 2514.39 1323.44 2523.45 1276.67 2603.15 1262.54 2682.84 1248.42 2706.34 1270.44 2730.94 1252.57 2755.55 1234.71 2737.92 1172.82 2750.78 1155.37 2763.63 1137.92 2797.78 1130.86 2808.06 1147.89 2818.35 1164.92 2795.58 1239.28 2812.47 1257.56 2829.36 1275.83 2893.63 1282.48 2909.42 1257.56 2925.21 1232.63 2928.15 1156.2 2907.22 1108.02 2886.29 1059.83 2827.53 970.52 2783.83 968.443 2740.13 966.367 2669.62 1047.37 2645.01 1095.55 2620.41 1143.74 2638.03 1255.9 2636.2 1257.56 2634.36 1259.22 2643.91 1130.03 2633.99 1105.52 2624.08 1081.02 2552.1 1145.4 2576.7 1110.51 2601.31 1075.61 2716.99 901.98 2781.62 896.164 2846.26 890.349 2940.27 1040.31 2964.51 1075.61 2988.75 1110.92 2931.09 1079.35 2927.05 1108.02 2923.01 1136.68 2928.52 1215.6 2940.27 1247.59 2952.02 1279.57 2954.23 1274.17 2997.56 1299.93 3040.89 1325.68 3226.72 1327.34 3226.72 1327.34L3554 1329.07" stroke="#B8D1B7" stroke-width="32.0833" stroke-miterlimit="8" fill="none" fill-rule="evenodd"/></g></svg>