<svg width="1429" height="2289" xmlns="http://www.w3.org/2000/svg" xmlns:xlink="http://www.w3.org/1999/xlink" xml:space="preserve" overflow="hidden">
<style>
    @keyframes draw {
      to {
        stroke-dashoffset: 0;
      }
    }
    g path {
      stroke-width: 2;
      stroke-dasharray: 2500;
      stroke-dashoffset: 2500;
      animation: draw 3s linear forwards;
    }
  </style>
<g transform="translate(-1484 15)"><path d="M2635.88 56.3547C2620.25 51.1552 2584.93 65.91 2576.43 78.6536 2567.94 91.3973 2569.28 127.617 2584.91 132.817 2600.54 138.016 2660.88 122.286 2670.22 109.85 2679.55 97.4144 2651.51 61.5542 2635.88 56.3547Z" fill="#F6F6FA" fill-rule="evenodd"/>
    <path d="M2509.5 5.5 2559.13 58.4377C2587.28 91.7078 2614.45 127.238 2640.56 165.178 2745 316.937 2832.57 507.258 2907.5 726.5" stroke="#D2BBD3" stroke-width="4.58333" stroke-miterlimit="8" fill="none" fill-rule="evenodd"/><path d="M2475.01 142.236C2474.44 127.405 2513.12 107.442 2529.62 108.012 2546.12 108.582 2573.42 130.828 2573.99 145.658 2574.56 160.488 2548.39 197.564 2533.03 196.993 2517.67 196.423 2475.57 157.066 2475.01 142.236Z" fill="#DCCADD" fill-rule="evenodd"/><path d="M2565.77 268.751C2539.5 271.487 2518.11 251.241 2532.78 232.637 2547.44 214.032 2627.49 159.861 2653.76 157.126 2680.03 154.389 2705.69 197.07 2690.42 216.221 2675.14 235.372 2592.05 266.015 2565.77 268.751Z" fill="#F6F6FA" fill-rule="evenodd"/><path d="M2646.35 297.576C2641.23 311.901 2693.61 333.102 2714.67 331.956 2735.74 330.81 2767.62 305.025 2772.74 290.701 2777.87 276.376 2767.05 245.435 2745.41 246.008 2723.78 246.581 2651.47 283.252 2646.35 297.576Z" fill="#DCCADD" fill-rule="evenodd"/><path d="M2728.08 207.346C2714.95 197.69 2687.25 151.483 2689.22 138.403 2691.19 125.324 2726.77 119.214 2739.9 128.87 2753.02 138.526 2769.43 181.728 2767.98 196.341 2766.53 210.954 2741.2 217.002 2728.08 207.346Z" fill="#DCCADD" fill-rule="evenodd"/><path d="M2740.19 347.209C2752.67 334.214 2810.89 316.19 2827.52 317.028 2844.15 317.866 2852.47 339.245 2839.99 352.239 2827.52 365.234 2770.13 395.415 2752.67 394.996 2735.2 394.577 2727.72 360.204 2740.19 347.209Z" fill="#F6F6FA" fill-rule="evenodd"/><path d="M2875.82 404.223C2867.89 400.93 2845.46 414.378 2842.92 423.391 2840.38 432.404 2852.67 455.008 2860.6 458.301 2868.53 461.594 2886.91 452.917 2890.52 443.148 2894.14 433.379 2883.76 407.515 2875.82 404.223Z" fill="#DCCADD" fill-rule="evenodd"/><path d="M2750.3 447.924C2760.29 433.319 2809.81 412.454 2822.72 417.879 2835.62 423.304 2837.7 465.868 2827.71 480.474 2817.72 495.079 2776.52 512.188 2762.79 505.512 2749.05 498.835 2740.31 462.53 2750.3 447.924Z" fill="#F6F6FA" fill-rule="evenodd"/><path d="M2710.52 357.795C2700.87 353.766 2677 365.853 2677 375.925 2677 385.997 2700.87 414.199 2710.52 418.228 2720.17 422.257 2733.38 409.667 2734.9 400.098 2736.42 390.53 2720.17 361.824 2710.52 357.795Z" fill="#DCCADD" fill-rule="evenodd"/><path d="M1571.41 106.28C1589.03 86.0537 1673.2 63.8701 1692.77 74.9621 1712.35 86.054 1706.48 152.605 1688.86 172.832 1671.24 193.058 1607.95 209.37 1587.07 196.321 1566.19 183.271 1553.79 126.507 1571.41 106.28Z" fill="#F6F6FA" fill-rule="evenodd"/><path d="M1522.41 33.2224C1516.53 44.4968 1521.76 69.0351 1534.18 73.0144 1546.6 76.9937 1591.05 68.372 1596.93 57.0975 1602.81 45.823 1583.2 8.68375 1569.48 5.3679 1555.75 2.05169 1528.3 21.9479 1522.41 33.2224Z" fill="#DCCADD" fill-rule="evenodd"/><path d="M1484.7 102.429C1500.46 100.877 1516.29 103.492 1524.13 111.009 1539.8 126.045 1554.81 190.761 1539.8 209.065 1532.29 218.217 1510.09 225.244 1487.64 227.94L1484 228 1484 102.597Z" fill="#F6F6FA" fill-rule="evenodd"/><path d="M2895.81 2000.01 2913 2000.9 2913 2211 2892.8 2207.02C2830.81 2192.06 2757.57 2161.89 2738.33 2141.43 2707.54 2108.69 2751.43 2035.37 2793.36 2015.72 2814.32 2005.9 2855.76 1999.68 2895.81 2000.01Z" fill="#F6F6FA" fill-rule="evenodd"/><path d="M2774.63 1927.69C2787.49 1914.48 2865.84 1897.59 2885.95 1901.33 2906.06 1905.07 2908.15 1936.93 2895.29 1950.14 2882.43 1963.35 2831 1985.42 2808.78 1980.6 2786.57 1975.79 2761.77 1940.9 2774.63 1927.69Z" fill="#DCCADD" fill-rule="evenodd"/><path d="M2041.23 86.2103 2029.07 199.854 2032.5 158.764C2034.23 142.535 2036.23 126.543 2038.36 109.674L2041.23 86.2103ZM2049.86 5.5 2049.98 5.5 2045.01 55.328 2041.23 86.2103 2049.86 5.5C2028.8 202.996 2028.54 206.138 2028.28 209.28 2024.1 280.553 2026.47 373.445 2044.26 559.229 2079.84 930.798 2332.58 1671.49 2265.1 2218.45L2257 2273.5" stroke="#DCCADD" stroke-width="4.58333" stroke-miterlimit="8" fill="none" fill-rule="evenodd"/>
</g>
</svg>