<svg width="844" height="232" xmlns="http://www.w3.org/2000/svg" xmlns:xlink="http://www.w3.org/1999/xlink" xml:space="preserve" overflow="hidden"><g transform="translate(-1815 -1022)"><path d="M1815.5 1248.47C1919.22 1250.55 2022.94 1252.64 2104.16 1245.96 2185.39 1239.29 2257.66 1215.53 2302.85 1208.44 2348.05 1201.35 2361.38 1212.4 2375.33 1203.44 2389.29 1194.48 2379.29 1163.41 2386.58 1154.66 2393.87 1145.9 2413.24 1142.36 2419.07 1150.91 2424.9 1159.45 2411.99 1196.77 2421.57 1205.94 2431.15 1215.11 2467.6 1218.45 2476.55 1205.94 2485.51 1193.43 2487.18 1155.08 2475.3 1130.9 2463.43 1106.71 2430.11 1061.9 2405.32 1060.85 2380.54 1059.81 2340.55 1100.46 2326.6 1124.64 2312.64 1148.82 2322.64 1205.11 2321.6 1205.94 2320.56 1206.77 2325.97 1141.94 2320.35 1129.65 2314.73 1117.35 2273.91 1149.66 2287.86 1132.15 2301.81 1114.64 2367.42 1027.5 2404.08 1024.58 2440.73 1021.66 2494.05 1096.92 2507.79 1114.64 2521.54 1132.35 2488.84 1116.51 2486.55 1130.9 2484.26 1145.28 2487.38 1184.89 2494.05 1200.94 2500.71 1216.99 2501.96 1214.28 2526.54 1227.2 2551.11 1240.13 2656.5 1240.96 2656.5 1240.96L2656.5 1240.96" stroke="#B8D1B7" stroke-width="4.58333" stroke-miterlimit="8" fill="none" fill-rule="evenodd"/></g></svg>