<svg width="747" height="75" xmlns="http://www.w3.org/2000/svg" xmlns:xlink="http://www.w3.org/1999/xlink" xml:space="preserve" overflow="hidden">
    <g transform="translate(-1781 -947)">
        <path d="M1782.5 994.072C1788.24 991.713 1793.97 989.353 1801.59 990.027 1809.21 990.701 1801.69 997.924 1828.2 998.117 1854.72 998.309 1936.97 989.738 1960.69 991.183 1984.41 992.627 1969.95 1005.34 1970.52 1006.78 1971.1 1008.23 1960.98 1003.03 1964.16 999.85 1967.34 996.672 1976.5 987.427 1989.62 987.716 2002.73 988.005 2017.68 1000.62 2042.84 1001.58 2088.84 975.967 2126.44 984.923 2140.62 990.605 2151.9 985.309 2150.62 975.379 2145.24 973.271 2131.08 967.73 2075.41 962.93 2057.52 985.59 2054.53 994.898 2057.25 1002.87 2065.41 1008.52 2073.56 1014.17 2092.5 1019.69 2106.48 1019.5 2120.46 1019.3 2141.29 1013.91 2149.29 1007.36 2157.3 1000.81 2157.2 981.938 2154.5 980.205 2150.64 978.471 2148.33 996.865 2133.09 996.961 2094.33 1005.44 2057.79 991.376 2061.36 978.471 2063.54 973.848 2090.72 962.047 2146.22 969.222 2163.19 971.682 2185.12 985.925 2190.37 991.761 2179.93 1003.18 2110.72 972.405 2119.79 955.937 2136.37 942.455 2192.66 969.956 2202.11 987.386 2199.72 990.781 2193.25 989.533 2193.26 990.027 2193.27 990.522 2193.78 993.639 2202.18 990.355 2201.89 994.014 2197.72 1009.22 2187.31 1011.24 2150.28 1011.72 2126.06 995.613 2114.58 982.516 2109.47 976.353 2102.53 964.508 2122.68 950.737 2136.08 947.655 2172.15 946.885 2212.35 991.761 2234.05 1015.84 2263.27 1001.68 2273.68 1005.05 2284.09 1008.42 2275.03 1012.47 2274.84 1011.98 2274.64 1011.5 2269.82 1005.34 2272.52 1002.16 2275.22 998.983 2280.43 992.627 2291.04 992.916 2301.64 993.205 2322.47 1002.16 2336.16 1003.89 2349.85 1005.63 2367.5 1004.86 2373.19 1003.32 2378.88 1001.78 2371.16 994.072 2370.29 994.65 2369.43 995.228 2360.85 1004.76 2367.98 1006.78 2375.12 1008.81 2400.09 1008.32 2413.11 1006.78 2426.12 1005.24 2427.18 996.576 2446.08 997.539 2464.98 998.502 2495.74 1005.53 2526.5 1012.56" 
        stroke="#D2BBD3" stroke-width="6" stroke-miterlimit="8"
        fill="none" fill-rule="evenodd"/>
    </g>
</svg>