<svg width="1432" height="2266" xmlns="http://www.w3.org/2000/svg" xmlns:xlink="http://www.w3.org/1999/xlink" xml:space="preserve" overflow="hidden">
<style>
    @keyframes draw {
      to {
        stroke-dashoffset: 0;
      }
    }
    g path {
      stroke-width: 2;
      stroke-dasharray: 1300;
      stroke-dashoffset: 1300;
      animation: draw 4s ease-in forwards;
      animation-delay: 12.5s;
    }
  </style>
<g transform="translate(-1484 0)">
<rect x="1484" y="0" width="1432" height="2266" fill="#4472C4" fill-opacity="0"/>
<path d="M1702.03 1851.35 1698.95 1851.91 1698.82 1851.54ZM1768.58 1849.64 1772.71 1849.66 1771.61 1852ZM1624.03 1849.43 1487 1851.23 1487 1849.98ZM1707.03 1849.35 1709.7 1849.59C1713.2 1850.09 1710.05 1850.72 1704.29 1851.22L1702.03 1851.35 1702.84 1851.2C1704.42 1850.73 1706.03 1850.11 1706.88 1849.6ZM1697.99 1849.14 1698.82 1851.54 1694.19 1851.81C1683.14 1852.23 1670.77 1852.01 1670.73 1850.23L1670.78 1849.24ZM1707.19 1849.1 1707.03 1849.35 1705.75 1849.24 1702.62 1849.12ZM1717.32 1849.06 1717.38 1849.18C1716.99 1849.48 1715.47 1849.61 1713.97 1849.57L1711.24 1849.08ZM1697.92 1848.95 1698.94 1848.97 1702.62 1849.12 1697.99 1849.14ZM1767.86 1848.86 1768 1849.18 1768.58 1849.64 1768.43 1849.64C1765.82 1849.62 1764.26 1849.61 1763.8 1849.6 1756.47 1849.48 1754.37 1849.43 1753.93 1849.27L1753.96 1848.91ZM1670.8 1848.82 1670.78 1849.24 1624.03 1849.43ZM1715.6 1845.9 1716.61 1847.44 1716.78 1847.83 1715.05 1846.87ZM1705.48 1845.2C1705.52 1845.27 1706.4 1845.24 1707.29 1845.29L1707.8 1845.43 1706.65 1845.97C1705.97 1845.69 1705.44 1845.13 1705.48 1845.2ZM1715.48 1845.15 1715.98 1845.23 1715.6 1845.9 1715.28 1845.4ZM1713.18 1844.78 1714.27 1844.95 1713.38 1846.36 1711.94 1845.88ZM2913 1844.29 2913 1847.01 2900.18 1847.39C2675.87 1853.11 1899.35 1850.3 1779.3 1849.7L1772.71 1849.66 1773.09 1848.84ZM1709.06 1843.9 1709.91 1845.2 1711.94 1845.88 1710.93 1846.77C1710.44 1847.67 1710.26 1848.6 1710.61 1848.97L1711.24 1849.08 1707.19 1849.1 1709.21 1845.82 1707.8 1845.43 1708.75 1844.99ZM1717.61 1843.31 1717.44 1843.49 1717.23 1843.5ZM1722.98 1842.47C1723.79 1842.92 1723.44 1845.86 1721.81 1846.24 1720.99 1846.44 1719.3 1845.96 1717.58 1845.48L1715.98 1845.23 1716.18 1844.88 1717.44 1843.49 1719.87 1843.39C1721.21 1842.88 1722.57 1842.24 1722.98 1842.47ZM1753.53 1841C1753.63 1840.93 1752.39 1841.7 1751.04 1842.48L1748.34 1843.75 1750.21 1842.52C1751.83 1841.73 1753.44 1841.07 1753.53 1841ZM1752.05 1835.21 1752.76 1836.93C1753.78 1839.06 1754.82 1841.1 1755.4 1842.47 1756.57 1845.2 1757.93 1846.42 1757.27 1847.29 1756.94 1847.73 1756.49 1847.84 1755.62 1847.84L1754.06 1847.79 1754.26 1846.09C1754.82 1845.18 1755.52 1844.18 1755.4 1843.31 1755.17 1841.56 1753.77 1842.64 1752.6 1837.85ZM1710.89 1828.47 1710.61 1828.75C1710.19 1829.43 1709.87 1830.42 1710.15 1831.77L1711.49 1834.87 1710.86 1837.8 1709.06 1843.9 1707.54 1841.59 1705.18 1837.18 1705.54 1835.57 1706.86 1829.41ZM1711.78 1827.57C1711.97 1827.45 1712.28 1827.41 1712.46 1827.76L1712.47 1828.1 1710.89 1828.47ZM1710.74 1824.26 1709.91 1824.4C1709.01 1824.74 1708.07 1825.47 1707.35 1827.15L1706.86 1829.41 1706.65 1829.46 1700.99 1828.27 1700.35 1826.73C1699.22 1823.34 1701.32 1825.26 1703.15 1824.84ZM1711.44 1824.14 1711.31 1824.22 1710.74 1824.26ZM1716.3 1821.35 1715.28 1822.12C1714.5 1822.96 1714.62 1825.58 1714.11 1825.89 1713.61 1826.21 1713.37 1823.8 1712.25 1824.01L1711.44 1824.14ZM1717.1 1820.75 1717.45 1820.78 1717.1 1820.89 1716.3 1821.35ZM1748.64 1819.7 1749.23 1819.72 1750.35 1826.33C1750.76 1828.62 1751.17 1830.9 1751.56 1832.91L1752.05 1835.21 1750.27 1830.93C1749.3 1827.57 1749.86 1824.13 1749.59 1822.34 1749.31 1820.56 1748.91 1823.03 1748.63 1820.23ZM1721.57 1819.5 1721.2 1825.41C1720.55 1828.2 1719.63 1831.31 1719.24 1833.32 1718.47 1837.34 1716.29 1841.99 1716.91 1843.52L1717.23 1843.5 1716.47 1843.9 1715.48 1845.15 1714.27 1844.95 1715.05 1843.73C1715.06 1842.61 1713.98 1840.29 1712.81 1837.92L1711.49 1834.87 1712.48 1830.3 1712.47 1828.1 1712.95 1827.99C1714.97 1827.89 1717.81 1830.02 1718.78 1828.83 1719.75 1827.64 1719.36 1821.98 1718.78 1820.86L1717.45 1820.78 1721.24 1819.5ZM1729.34 1819.5 1736.08 1819.54 1737.67 1820.65C1740.86 1824.67 1747.3 1843.77 1747.94 1843.94L1748.34 1843.75 1746.77 1844.78C1746.42 1845.89 1747.39 1847.68 1751.43 1847.71L1754.06 1847.79 1754 1848.34 1753.96 1848.91 1717.32 1849.06 1716.78 1847.83 1716.94 1847.92C1717.87 1848.18 1718.95 1848.29 1719.71 1848.13 1721.23 1847.82 1723.56 1845.89 1724.14 1844.99 1724.73 1844.08 1722.43 1846.87 1723.21 1842.68 1723.99 1838.48 1726.4 1823.48 1728.81 1819.81ZM1748.42 1814.65 1748.68 1816.29 1748.65 1817 1748.64 1819.7 1746.4 1819.6 1736.08 1819.54 1732.95 1817.34 1729.34 1819.5 1725.13 1819.47 1721.57 1819.5 1721.58 1819.39 1721.24 1819.5 1702.43 1819.66C1699.06 1819.7 1696.01 1819.74 1693.5 1819.77L1692.57 1819.77 1688 1819.64C1684.67 1819.64 1682.74 1819.81 1687.75 1819.81L1692.57 1819.77 1693.35 1819.79C1695.01 1819.91 1696.34 1820.12 1696.62 1820.44 1697.75 1821.73 1694.01 1826.31 1694.52 1827.57 1695.02 1828.83 1697.63 1827.68 1699.65 1827.99L1700.99 1828.27 1701.98 1830.65C1702.73 1832.32 1703.66 1834.25 1704.64 1836.17L1705.18 1837.18 1703.62 1844.15C1702.02 1847.71 1698.56 1847.26 1697.78 1848.55L1697.92 1848.95 1688.86 1848.8C1684.92 1848.77 1680.37 1848.75 1675.16 1848.76L1670.8 1848.82 1671.04 1844.23C1671.48 1838.93 1672.32 1831.67 1673.19 1826.33L1674.33 1820.83 1675.87 1820.91C1677.09 1821.19 1678.09 1821.74 1678.66 1822.75 1680.91 1826.77 1677.45 1845.33 1677.72 1844.99 1678 1844.64 1680.83 1824.77 1680.29 1820.65 1679.74 1816.52 1676.05 1815.3 1674.46 1820.23L1674.33 1820.83 1671.7 1820.7C1668.74 1820.87 1665.69 1821.4 1664.19 1820.86 1662.13 1817.89 1660.69 1820.4 1660.69 1816.24 1665.59 1815.99 1674.36 1815.73 1685.07 1815.49L1693.61 1815.35 1699.39 1815.94C1703.29 1816.04 1707.37 1815.93 1709.68 1815.61L1711.79 1815.04 1720.87 1814.88 1721.34 1816.03C1721.42 1816.12 1721.54 1815.7 1721.58 1815.1L1721.55 1814.88ZM1757.18 1814.58C1767.94 1814.55 1776.77 1814.61 1781.76 1814.77 1790.04 1820.05 1783.66 1819.6 1780.36 1820.23 1776.35 1819.6 1765.24 1817.92 1763.1 1819.39 1760.96 1820.86 1765.86 1824.15 1767.53 1829.04 1769.2 1833.94 1773.05 1845.4 1773.13 1848.76L1773.09 1848.84 1767.86 1848.86 1765.44 1842.94C1762.47 1834.61 1758.61 1821.75 1756.8 1820.44 1756.5 1820.22 1755.35 1820.05 1753.55 1819.91L1749.23 1819.72 1749.22 1819.68 1748.68 1816.29 1748.74 1814.65ZM1720.52 1811.91 1721.34 1813.1 1721.55 1814.88 1721.1 1814.88 1720.87 1814.88 1720.64 1814.34C1720.37 1813.49 1720.18 1812.54 1720.41 1812.05ZM1716.75 1808.99 1717.84 1811.21C1717.59 1812.41 1716.71 1813.36 1715.31 1814.08L1711.79 1815.04 1693.61 1815.35 1690.09 1814.98C1686.78 1813.9 1687.91 1809.56 1689.85 1809.11 1691.8 1808.66 1697.98 1811.7 1701.75 1812.26 1705.52 1812.82 1709.84 1813.13 1712.48 1812.47 1713.8 1812.13 1714.45 1811.24 1715.09 1810.36ZM1747.94 1805.54C1748.79 1806.42 1748.9 1809.39 1748.82 1812.49L1748.74 1814.65 1748.42 1814.65 1748.4 1814.56C1747.62 1809.46 1749.41 1810.26 1747.94 1807.22L1746.87 1805.85ZM1745.15 1803.63 1746.87 1805.85 1744 1806.7C1742.32 1807.87 1740.35 1809.35 1738.37 1809.74 1734.41 1810.51 1727.14 1809.77 1724.14 1810.16 1722.65 1810.35 1721.83 1810.58 1721.33 1810.88L1720.52 1811.91 1720.1 1811.31C1719.57 1810.65 1718.99 1809.81 1718.54 1808.48L1718.51 1808.34 1721.74 1808.59C1723.32 1808.88 1725.19 1809.15 1727.64 1808.69 1731.32 1808.01 1739.36 1805.79 1743.91 1804.17ZM1743.13 1801.01 1744.73 1801.11C1746.65 1801.52 1747.9 1802.15 1747 1802.82L1745.15 1803.63 1743.93 1802.06ZM1709.21 1799.67C1710.38 1799.7 1701.75 1803.55 1701.75 1804.91 1701.75 1806.28 1709.87 1807.15 1709.21 1807.85 1708.55 1808.55 1701.05 1809.32 1697.78 1809.11 1694.52 1808.9 1690.4 1808.73 1689.62 1806.59L1690.53 1803.32 1693.03 1802.6 1693.05 1802.86C1693.09 1803.87 1693.39 1804.74 1694.75 1804.7 1697.47 1804.63 1708.05 1799.63 1709.21 1799.67ZM1690.83 1797.8 1691.81 1798.28 1692.13 1798.83 1690.92 1801.94 1690.53 1803.32 1689.39 1803.66C1688.38 1803.64 1688.58 1802.32 1689.11 1800.93L1690.63 1798.07ZM1713.73 1789.42 1714.3 1791.7C1714.86 1793.42 1715.55 1795.46 1715.98 1797.15 1716.41 1798.85 1716.82 1801.02 1717.25 1803.09L1718.51 1808.34 1717.61 1808.27 1716.75 1808.99 1715.69 1806.84C1714.41 1805.15 1713 1803.24 1712.71 1801.14 1712.42 1799.04 1712.68 1795.91 1713.09 1792.98ZM1713.64 1788.24 1713.92 1788.39 1713.73 1789.42 1713.48 1788.4ZM1712.39 1776.13C1713.05 1776 1713.24 1776.4 1712.01 1777.85 1711.4 1778.58 1710.14 1779.95 1708.57 1781.62L1704.07 1786.32 1703.85 1786.24C1704.31 1784.77 1708.55 1779.04 1709.91 1777.64 1710.59 1776.94 1711.73 1776.27 1712.39 1776.13ZM1699.65 1775.33C1700.12 1775.51 1702.49 1777.01 1700.82 1778.06L1700.02 1778.2 1699.78 1777 1699.33 1775.64ZM1699.1 1774.96 1699.33 1775.64 1698.53 1776.39 1698.32 1776.65 1698.38 1776.33ZM1732.82 1771.15C1733.02 1770.92 1735.78 1773.73 1734.64 1773.65L1734.52 1773.63 1733.71 1772.61C1732.97 1771.63 1732.75 1771.22 1732.82 1771.15ZM1705.01 1759.39C1706.34 1758.79 1708.57 1759.02 1710.73 1759.57L1714.75 1761.2 1714.87 1761.28 1716.26 1762.21 1717.47 1764.42 1717.29 1766.22 1716.88 1767.28C1716.01 1768.6 1715.18 1769.81 1715.74 1770.3L1716.09 1770.3 1715.42 1771.88C1714.66 1773.3 1713.88 1774.58 1713.65 1775.12 1713.18 1776.21 1714.23 1773.93 1714.35 1774.28 1714.46 1774.63 1713.61 1777.22 1714.35 1777.22 1715.08 1777.22 1716.48 1774.98 1718.78 1774.28 1721.07 1773.58 1727.02 1773.83 1728.11 1773.02L1727.73 1772.42 1730.11 1772.76 1734.52 1773.63 1737.61 1777.5C1742.85 1783.99 1751.01 1794.04 1752.32 1796.95 1754.08 1800.83 1746.54 1797.55 1744.21 1795.87 1741.89 1794.19 1739.46 1789.14 1738.37 1786.87 1737.28 1784.6 1738.33 1783.9 1737.67 1782.26 1737.01 1780.61 1734.68 1776.66 1734.41 1777.01 1734.13 1777.36 1735.18 1781.14 1736.04 1784.35 1736.89 1787.57 1737.56 1792.5 1739.54 1796.31L1743.13 1801.01 1738.37 1800.72C1734.72 1801.14 1726.36 1805.23 1725.08 1805.33 1723.79 1805.44 1731.22 1801.98 1730.67 1801.35 1730.13 1800.72 1724.06 1803.13 1721.81 1801.56 1719.55 1799.98 1718.54 1794.14 1717.14 1791.91 1716.44 1790.79 1715.56 1789.62 1714.83 1788.85L1713.92 1788.39 1714.02 1787.86 1716.21 1785.61C1718.12 1783.62 1714.93 1783.44 1714.35 1786.03L1714.02 1787.86 1713.64 1788.24 1713.41 1788.13 1713.48 1788.4 1710.53 1791.42C1708 1793.89 1705.15 1796.49 1702.92 1797.99 1700.68 1799.49 1697.8 1800.92 1695.23 1801.96L1693.03 1802.6 1692.89 1800.09 1692.13 1798.83 1693.12 1796.31 1692.98 1793.54 1693.35 1792.54C1693.7 1790.4 1692.22 1785.4 1692.19 1786.03 1692.17 1786.35 1692.51 1788.06 1692.8 1790.12L1692.98 1793.54 1692 1796.17 1690.83 1797.8 1690.79 1797.78 1690.63 1798.07 1690.09 1798.83C1689 1799.67 1686.9 1800.44 1686.82 1797.57 1686.74 1794.7 1687.29 1784.88 1689.62 1781.63L1693.87 1779.73 1694.28 1781.22C1695.11 1782.54 1696.13 1783.51 1696.62 1783.3 1697.1 1783.1 1697.52 1780.99 1697.9 1778.89L1697.96 1778.57 1700.02 1778.2 1700.58 1781C1701.21 1782.61 1703.58 1781.8 1702.68 1784.14 1701.79 1786.49 1693.66 1796.1 1695.22 1795.05 1696 1794.53 1699.58 1790.95 1703.28 1787.15L1704.07 1786.32 1704.93 1786.62C1705.68 1786.4 1706.61 1786.08 1707.11 1786.45 1708.13 1787.19 1708.67 1791.45 1709.91 1790.65 1711.16 1789.84 1714.23 1783.65 1714.58 1781.63 1714.93 1779.6 1712.17 1779.53 1712.01 1778.48 1711.86 1777.43 1714.35 1775.65 1713.65 1775.33 1712.95 1775.02 1708.51 1777.22 1707.81 1776.59 1707.11 1775.96 1710.22 1771.52 1709.45 1771.56 1708.67 1771.59 1703.34 1777.19 1703.15 1776.8 1702.95 1776.42 1707.66 1771.35 1708.28 1769.25 1708.9 1767.15 1707.23 1764.6 1706.88 1764.21 1706.53 1763.83 1707.04 1765.86 1706.18 1766.94 1705.33 1768.02 1703.11 1769.04 1701.75 1770.72 1701.07 1771.56 1700.22 1772.94 1699.5 1774.21L1699.1 1774.96 1698.95 1774.49C1698.78 1774.59 1698.62 1775.16 1698.44 1775.97L1698.38 1776.33 1698.02 1777.01 1698.32 1776.65 1697.96 1778.57 1695.47 1779.02 1693.87 1779.73 1693.12 1777.01C1693.7 1774.6 1698.13 1771.77 1700.12 1768.83 1702.1 1765.89 1702.37 1760.58 1705.01 1759.39ZM1718.08 1751.04C1720.16 1750.9 1722.28 1751.14 1723.44 1752.05 1725.77 1753.86 1726.63 1760.26 1726.94 1763.16 1727.25 1766.07 1725.11 1767.82 1725.31 1769.46 1725.41 1770.28 1726.38 1770.97 1727.19 1771.56L1727.73 1772.42 1724.61 1771.98C1721.81 1772.01 1718.93 1774.21 1717.84 1773.86 1717.3 1773.69 1717.06 1772.88 1717.1 1772.02L1717.89 1770.29 1720.69 1770.27C1722.83 1769.95 1724.88 1769.49 1725.08 1769.46 1725.46 1769.39 1719.28 1769.14 1718.08 1769.88L1717.89 1770.29 1716.09 1770.3 1717.14 1767.78 1717.29 1766.22 1718.31 1763.58 1716.26 1762.21 1715.98 1761.7 1714.75 1761.2 1711.31 1758.97C1710.42 1757.08 1710.92 1753.41 1712.95 1752.26 1713.96 1751.68 1716 1751.17 1718.08 1751.04Z" stroke="#DCCADD" stroke-width="2.29167" stroke-miterlimit="8" fill="none" fill-rule="evenodd"/></g></svg>