<svg width="1462" height="2266" xmlns="http://www.w3.org/2000/svg" xmlns:xlink="http://www.w3.org/1999/xlink" xml:space="preserve" overflow="hidden">
<style>
    @keyframes draw {
      to {
        stroke-dashoffset: 0;
      }
    }
    g path {
      stroke-width: 2;
      stroke-dasharray: 1500;
      stroke-dashoffset: 1500;
      animation: draw 3s ease-in forwards;
      animation-delay: 4s;
    }
  </style>
<g transform="translate(-1467 0)">
<rect x="1484" y="0" width="1432" height="2266" fill="#4472C4" fill-opacity="0"/><path d="M1867.81 1844.25 1844.24 1857.82C1772.48 1866.37 1668.02 1858.21 1533.78 1851.77L1487.5 1850.7 1867.81 1844.25ZM2921.5 1842.25 2913.64 1835.52 2886.66 1839.9C2677.21 1869.47 2301.76 1846.93 2106.78 1850.68 2041.56 1851.94 1994.23 1854.05 1969.46 1846.42L1961.31 1842.66C2278.75 1837.28 2604.06 1847.63 2921.5 1842.25ZM1991.63 1737.97 1999.52 1742.13C2002.62 1744.23 2004.71 1746.4 2004.85 1748.66 2005.43 1757.71 1974.88 1747.92 1977.87 1744.51 1978.62 1743.65 1981.4 1742.2 1985.24 1740.51L1991.63 1737.97ZM1952.72 1732.81 1955.98 1733.8C1959.12 1734.94 1961.3 1735.66 1961.83 1734.81 1963.92 1731.42 1986.33 1764.26 1963.76 1759.05 1958.12 1757.74 1954.95 1753.91 1953.39 1748.81L1952.72 1732.81ZM2022.83 1728.17C2029.4 1728.21 2021.27 1746.84 2017.3 1744.78 2015.32 1743.76 2010.4 1738.82 2006.16 1733L2005.99 1732.71 2013.46 1730.22C2017.75 1728.96 2021.19 1728.16 2022.83 1728.17ZM1818.6 1727.61 1818.99 1727.62 1817.19 1733C1813.1 1742.1 1807.62 1750.98 1807.03 1752.26 1805.83 1754.82 1798.73 1728.31 1811.87 1727.75 1813.51 1727.68 1815.81 1727.62 1818.6 1727.61ZM1803.18 1711.24 1797.97 1719.19C1795.22 1722.61 1792.32 1725.43 1789.46 1727.06 1778.02 1733.57 1742.88 1737.26 1747.82 1726.09 1750.28 1720.51 1765.63 1715.99 1781.59 1713.41L1803.18 1711.24ZM2025.74 1689.53C2029.91 1689.74 2027.54 1716.03 2024.08 1717.09 2021.48 1717.89 2013.79 1709.89 2008.8 1702.61L2008.54 1702.15 2011.35 1699.16C2017.33 1693.71 2023.65 1689.43 2025.74 1689.53ZM1801.12 1683.06 1805.17 1683.69 1803.57 1685.33C1794.52 1693.78 1785.24 1701.28 1782.12 1703.24 1775.9 1707.17 1781.2 1687.78 1786.27 1685.24 1788.81 1683.97 1795.25 1682.92 1801.12 1683.06ZM2005.4 1670.98C2018.22 1670.47 2026.64 1680.42 2012.18 1687.04L2002.3 1689.67 2001.94 1688.84C1998.61 1680.87 1995.79 1671.36 2005.4 1670.98ZM1822.18 1663.8 1824.98 1670.62C1826.23 1674.68 1826.51 1677.63 1825.01 1678.32 1823.51 1679.01 1820.47 1676.66 1816.5 1672.98L1816.09 1672.59 1816.17 1672.51 1822.18 1663.8ZM1957.81 1658.93C1961.39 1659.07 1967.73 1682.7 1963.35 1682.47 1961.16 1682.36 1952.05 1677.4 1944.07 1671.83L1941.51 1669.73 1945.48 1664.12C1950.03 1660.46 1956.03 1658.86 1957.81 1658.93ZM1858.28 1651.78 1861.41 1658.28 1862.28 1659.73 1860.46 1666.29C1858.33 1672.55 1855.21 1678.9 1851.29 1681.09L1844.96 1681.98 1845.56 1674.77C1847.07 1668.4 1850.03 1662.28 1851.29 1658.93L1858.28 1651.78ZM1977.8 1651.77C1983.52 1651.69 1988.31 1651.78 1991.02 1652.01 2001.85 1652.93 2000.93 1662.16 1996.55 1663.09 1992.17 1664.01 1966.58 1666.78 1964.73 1657.55L1965.56 1652.26 1977.8 1651.77ZM1779.02 1647.48C1786.14 1646.78 1794.64 1652.79 1802.44 1659.69L1816.09 1672.59 1811.85 1676.9 1802.01 1674.03C1783.98 1669.16 1760.51 1662.26 1772.44 1650.62 1774.43 1648.69 1776.65 1647.71 1779.02 1647.48ZM1808.41 1634.01C1808.18 1631.24 1828.01 1650.16 1823.63 1661.7L1822.18 1663.8 1819.04 1656.16C1814.17 1645.78 1808.52 1635.39 1808.41 1634.01ZM1881.9 1630.66 1883.99 1631.33C1895.22 1633.29 1910.07 1633.52 1922.05 1632.02L1925.22 1631.27 1927.47 1634.35C1933.09 1640.53 1940.06 1645.43 1946.75 1646.47 1950.09 1646.99 1954.47 1646.44 1959.26 1645.23L1968.17 1642.11 1966.45 1646.58 1965.56 1652.26 1958.94 1652.53C1946 1653.39 1933.84 1655.01 1931.53 1657.55 1930.38 1658.82 1931.52 1661 1933.94 1663.55L1941.51 1669.73 1940.47 1671.19C1939.64 1674.1 1939.88 1677.56 1941.91 1681.64 1947.97 1693.88 1976.34 1694.52 1996.24 1691.29L2002.3 1689.67 2004.99 1695.9 2008.54 1702.15 2003.22 1707.82C2000.97 1710.73 1999.39 1713.54 1999.04 1715.84 1998.69 1718.15 1999.41 1720.98 2000.74 1723.96L2005.99 1732.71 1999.01 1735.04 1991.63 1737.97 1988.04 1736.08C1979.56 1732.18 1970.65 1728.56 1968.6 1725.12 1982.92 1713.4 1959.87 1696.9 1959.06 1702.55 1958.66 1705.38 1954.19 1718.2 1952.64 1730.96 1952.67 1731.58 1952.7 1732.19 1952.72 1732.81L1944.42 1730.29C1935.76 1728.66 1926.11 1729.99 1921.15 1743.54 1926.85 1795.86 1927.93 1822.17 1949.27 1837.11L1961.31 1842.66 1867.81 1844.25 1870.38 1842.77C1919.51 1807.03 1890.6 1767.91 1885.88 1748.94 1881.83 1732.68 1849.62 1728.58 1828.22 1727.78L1818.99 1727.62 1821.51 1720.09C1822.08 1716.35 1821.53 1713.47 1819.06 1712.38 1816.59 1711.29 1811.22 1710.91 1804.46 1711.11L1803.18 1711.24 1805.5 1707.71C1809.91 1699.63 1812.82 1691.5 1812.56 1688.01 1812.43 1686.27 1811.03 1685.07 1808.94 1684.28L1805.17 1683.69 1811.85 1676.9 1816.71 1678.32C1823.28 1680.86 1829.97 1682.65 1835.99 1683.25L1844.96 1681.98C1844.9 1682.73 1844.84 1683.47 1844.78 1684.21 1845.14 1687.22 1846.26 1689.97 1848.53 1692.17 1853.06 1696.55 1866.07 1700.59 1878.59 1703.94L1878.79 1703.99 1873.43 1707.73C1869.5 1710.73 1866.82 1713.17 1866.37 1714.46 1864.6 1719.63 1910.73 1714.78 1905.66 1711.55 1904.39 1710.74 1900.75 1709.68 1895.87 1708.39L1878.79 1703.99 1888.02 1697.56 1901.15 1689.32 1905.89 1695.09C1913 1702.52 1920.69 1708 1925.3 1705.74 1934.53 1701.21 1926.94 1675.2 1916.31 1680.53 1913.66 1681.87 1909.32 1684.33 1904.28 1687.36L1901.15 1689.32 1896.14 1683.22C1893.34 1679.26 1891.15 1675.54 1890.03 1672.78L1889.96 1672.03 1898.35 1666.79C1900.78 1664.89 1902.71 1663.03 1903.86 1661.7 1908.47 1656.39 1900.63 1637.7 1898.33 1639.55 1896.6 1640.93 1890.27 1652.73 1889.1 1663.19L1889.96 1672.03 1889.86 1672.09C1883.57 1675.03 1876.43 1676.13 1870.66 1671.4 1869.22 1670.21 1867.71 1668.43 1866.17 1666.19L1862.28 1659.73 1862.9 1657.49C1863.46 1654.94 1863.74 1652.93 1863.74 1652.01 1863.74 1650.16 1861.27 1650.22 1858.47 1651.58L1858.28 1651.78 1851.64 1637.99 1849.86 1634.09 1858.75 1637.35C1863.96 1638.68 1868.64 1639.14 1872.04 1638.16 1875.45 1637.18 1878.76 1634.44 1881.85 1630.75L1881.9 1630.66ZM1950.64 1613.04 1961.94 1617.88C1967.5 1620.25 1971.65 1622.07 1973.03 1622.93 1977.18 1625.53 1959.93 1622.02 1950.17 1617.67L1948.68 1616.6 1950.64 1613.04ZM1864.46 1608.71 1867.48 1610.54C1871.74 1612.61 1876.86 1614.75 1881.9 1616.61L1889.44 1618.97 1881.9 1630.66 1870.66 1627.09C1867.66 1625.24 1865.95 1621.86 1865.03 1617.78L1864.46 1608.71ZM1990.36 1607.68C1995.73 1610.9 2001.39 1622.24 1996.55 1627.09 1993.32 1630.32 1984.21 1635.68 1974.24 1639.98L1968.17 1642.11 1972.43 1631.07C1977.18 1620.39 1982.83 1610.24 1985.48 1607.7 1986.81 1606.43 1988.57 1606.6 1990.36 1607.68ZM1895.53 1605.95 1902.47 1615.83C1904.16 1618.72 1904.9 1620.85 1903.86 1621.55 1902.82 1622.24 1899.86 1621.94 1895.89 1620.99L1889.44 1618.97 1890.29 1617.65 1895.53 1605.95ZM1827.53 1602.3C1829.98 1601.99 1832.5 1602.68 1834.69 1604.93 1836.88 1607.18 1839.51 1611.87 1842.39 1617.78L1849.86 1634.09 1842.3 1631.33C1831.29 1626.33 1821.21 1620.16 1818.09 1617.39 1813.42 1613.24 1820.17 1603.24 1827.53 1602.3ZM1919.85 1598.65 1922.65 1600.25C1928.37 1603.22 1935.42 1606.44 1942.42 1609.52L1944.75 1610.51 1943.98 1613.24 1948.68 1616.6 1946.9 1619.83C1944.08 1623.7 1940.81 1626.85 1937.06 1628.47L1925.22 1631.27 1920.26 1624.47C1918.33 1621.07 1916.95 1617.68 1916.31 1614.62 1915.68 1611.57 1916.37 1607.67 1917.75 1603.49L1919.85 1598.65ZM1960.58 1588.31C1960 1589.58 1957.87 1598.01 1954.01 1606.92L1950.64 1613.04 1944.75 1610.51 1945.86 1606.55C1950.51 1598.14 1961.45 1586.41 1960.58 1588.31ZM1885.67 1586.06C1890.68 1585.02 1901.1 1587.62 1899.71 1593.85 1899.25 1595.93 1898.14 1599.49 1896.52 1603.73L1895.53 1605.95 1895.3 1605.62C1889.68 1598.24 1883.46 1590.62 1883.11 1588.31 1882.94 1587.16 1884 1586.41 1885.67 1586.06ZM1865.13 1584.16C1866.17 1586.01 1864.55 1594.89 1864.18 1604.24 1864.27 1605.73 1864.36 1607.22 1864.46 1608.71L1858.21 1604.93C1851.75 1598.7 1863.05 1580.47 1865.13 1584.16ZM1931.53 1573.08C1931.99 1574.93 1927.55 1582.26 1923.32 1590.65L1919.85 1598.65 1915.21 1596.02C1913.18 1594.71 1911.64 1593.51 1910.78 1592.47 1903.86 1584.16 1930.61 1569.39 1931.53 1573.08Z" stroke="#DCCADD" stroke-width="4.58333" stroke-miterlimit="8" fill="none" fill-rule="evenodd"/></g></svg>