<svg width="617" height="323" xmlns="http://www.w3.org/2000/svg" xmlns:xlink="http://www.w3.org/1999/xlink" xml:space="preserve" overflow="hidden"><g transform="translate(-2254 -2444)"><path d="M2345.6 2597.21 2352.1 2597.5 2358.65 2598.34 2365.08 2599.69 2371.35 2601.53 2377.41 2603.8 2383.22 2606.48 2388.72 2609.53 2393.87 2612.91 2398.62 2616.6 2402.92 2620.56 2406.72 2624.77 2409.97 2629.18 2412.6 2633.79 2414.57 2638.54 2415.8 2643.43 2416.21 2648.19 2416.6 2652.76 2416.54 2652.4 2417.68 2656.94 2417.58 2656.63 2419.42 2661.1 2419.29 2660.83 2421.79 2665.19 2421.65 2664.98 2424.75 2669.2 2424.6 2669.02 2428.25 2673.06 2428.1 2672.91 2432.25 2676.73 2432.11 2676.61 2436.71 2680.18 2436.56 2680.08 2441.57 2683.36 2441.42 2683.27 2446.77 2686.24 2446.62 2686.16 2452.28 2688.77 2451.92 2688.64 2460.4 2690.95 2459.2 2695.37 2450.53 2693.01 2444.62 2690.29 2439.12 2687.24 2433.97 2683.86 2429.22 2680.17 2424.92 2676.21 2421.12 2672 2417.88 2667.58 2415.24 2662.98 2413.28 2658.22 2412.05 2653.34 2411.64 2648.58 2411.25 2644 2411.31 2644.37 2410.16 2639.83 2410.27 2640.14 2408.42 2635.67 2408.55 2635.93 2406.05 2631.57 2406.2 2631.79 2403.1 2627.57 2403.24 2627.75 2399.59 2623.71 2399.74 2623.86 2395.59 2620.04 2395.74 2620.16 2391.13 2616.59 2391.28 2616.69 2386.28 2613.4 2386.43 2613.49 2381.07 2610.53 2381.22 2610.6 2375.57 2608 2375.72 2608.06 2369.82 2605.85 2369.98 2605.9 2363.88 2604.12 2364.05 2604.16 2357.79 2602.84 2357.97 2602.87 2351.61 2602.05 2351.81 2602.07 2345.4 2601.79ZM2457.75 2678.81 2482.34 2697.27 2452.83 2705.87Z" fill="#B8D1B7"/><path d="M2289 2646 2363.88 2646" stroke="#B8D1B7" stroke-width="10.3125" stroke-miterlimit="8" fill="none" fill-rule="evenodd"/><path d="M2289 2664 2340.97 2664" stroke="#B8D1B7" stroke-width="10.3125" stroke-miterlimit="8" fill="none" fill-rule="evenodd"/><path d="M2287 2599C2287 2584.64 2298.42 2573 2312.5 2573 2326.58 2573 2338 2584.64 2338 2599 2338 2613.36 2326.58 2625 2312.5 2625 2298.42 2625 2287 2613.36 2287 2599Z" fill="#B8D1B7" fill-rule="evenodd"/><path d="M2491 2744 2565.88 2744" stroke="#B8D1B7" stroke-width="10.3125" stroke-miterlimit="8" fill="none" fill-rule="evenodd"/><path d="M2491 2762 2542.97 2762" stroke="#B8D1B7" stroke-width="10.3125" stroke-miterlimit="8" fill="none" fill-rule="evenodd"/><path d="M2488 2697C2488 2682.64 2499.64 2671 2514 2671 2528.36 2671 2540 2682.64 2540 2697 2540 2711.36 2528.36 2723 2514 2723 2499.64 2723 2488 2711.36 2488 2697Z" fill="#B8D1B7" fill-rule="evenodd"/><path d="M2631 2695 2705.88 2695" stroke="#B8D1B7" stroke-width="10.3125" stroke-miterlimit="8" fill="none" fill-rule="evenodd"/><path d="M2631 2713 2682.97 2713" stroke="#B8D1B7" stroke-width="10.3125" stroke-miterlimit="8" fill="none" fill-rule="evenodd"/><path d="M2629 2648C2629 2633.64 2640.64 2622 2655 2622 2669.36 2622 2681 2633.64 2681 2648 2681 2662.36 2669.36 2674 2655 2674 2640.64 2674 2629 2662.36 2629 2648Z" fill="#B8D1B7" fill-rule="evenodd"/><path d="M0.177601-2.28477 7.40657-1.72285 14.5638-0.0995679 21.2576 2.42306 27.283 5.71034 32.4337 9.64436 36.441 14.0751 38.0113 16.5534 39.1725 19.0938 39.9088 21.734 40.1453 24.2252 40.3626 26.5137 40.2886 26.1146 40.9218 28.3851 40.7986 28.0481 41.8201 30.2828 41.6716 30.0089 43.0536 32.1899 42.8175 31.8793 46.5521 36.0087 45.9335 35.5252 54.853 40.297 52.6909 44.3383 43.4201 39.3786 39.2869 34.8085 37.7165 32.3302 36.5553 29.7898 35.819 27.1496 35.5825 24.6584 35.3653 22.3699 35.4393 22.769 34.806 20.4985 34.9292 20.8355 33.9077 18.6008 34.0562 18.8747 32.6742 16.6937 32.9103 17.0043 29.1757 12.8749 29.4844 13.159 24.6404 9.45928 24.9339 9.64981 19.2025 6.52298 19.4919 6.65567 13.095 4.24491 13.3963 4.33537 6.55563 2.78389 6.88491 2.83376-0.177601 2.28477ZM53.3203 27.8309 75.7279 48.8836 45.4412 54.178Z" fill="#B8D1B7" transform="matrix(1 0 0 -1 2547.5 2697.38)"/><path d="M2791 2726 2865.88 2726" stroke="#B8D1B7" stroke-width="10.3125" stroke-miterlimit="8" fill="none" fill-rule="evenodd"/><path d="M2791 2744 2842.97 2744" stroke="#B8D1B7" stroke-width="10.3125" stroke-miterlimit="8" fill="none" fill-rule="evenodd"/><path d="M2789 2679C2789 2664.64 2800.64 2653 2815 2653 2829.36 2653 2841 2664.64 2841 2679 2841 2693.36 2829.36 2705 2815 2705 2800.64 2705 2789 2693.36 2789 2679Z" fill="#B8D1B7" fill-rule="evenodd"/><path d="M2687.59 2646.21 2696.5 2646.56 2705.21 2647.55 2713.38 2649.1 2720.73 2651.12 2727 2653.52 2729.71 2654.89 2732.06 2656.34 2734.03 2657.91 2735.61 2659.65 2736.71 2661.63 2737.05 2663.43 2737.32 2664.87 2737.08 2664.18 2737.87 2665.61 2737.56 2665.18 2738.83 2666.58 2738.56 2666.33 2740.29 2667.7 2740.07 2667.54 2742.21 2668.87 2742.04 2668.77 2744.56 2670.04 2744.35 2669.95 2750.4 2672.27 2750.04 2672.17 2759.81 2674.16 2758.9 2678.65 2748.94 2676.62 2742.6 2674.19 2739.89 2672.82 2737.55 2671.37 2735.57 2669.8 2733.99 2668.06 2732.89 2666.08 2732.55 2664.28 2732.28 2662.84 2732.52 2663.53 2731.73 2662.1 2732.04 2662.53 2730.77 2661.13 2731.04 2661.38 2729.31 2660.01 2729.53 2660.17 2727.39 2658.84 2727.56 2658.94 2725.04 2657.67 2725.25 2657.76 2719.2 2655.44 2719.41 2655.51 2712.25 2653.54 2712.43 2653.59 2704.44 2652.07 2704.61 2652.1 2696.06 2651.12 2696.23 2651.13 2687.41 2650.79ZM2756.49 2662.2 2782.1 2679.21 2753.12 2689.49Z" fill="#B8D1B7"/><path d="M2312.58 2468.21 2319.25 2468.43 2325.94 2469.07 2332.52 2470.12 2338.97 2471.53 2351.08 2475.32 2356.76 2477.68 2362.05 2480.29 2366.94 2483.14 2371.37 2486.21 2375.3 2489.47 2378.67 2492.92 2381.43 2496.54 2383.52 2500.33 2384.84 2504.27 2385.27 2508.04 2385.68 2511.58 2385.57 2511.12 2386.75 2514.63 2386.58 2514.25 2388.49 2517.71 2388.3 2517.42 2390.87 2520.8 2390.69 2520.58 2393.88 2523.85 2393.71 2523.69 2397.47 2526.81 2397.31 2526.69 2401.59 2529.65 2401.44 2529.55 2406.18 2532.32 2406.04 2532.24 2411.19 2534.78 2411.06 2534.72 2416.57 2537.02 2416.27 2536.91 2431.35 2540.83 2430.2 2545.26 2414.96 2541.31 2409.23 2538.93 2403.94 2536.32 2399.05 2533.47 2394.62 2530.4 2390.69 2527.14 2387.32 2523.69 2384.55 2520.07 2382.47 2516.28 2381.15 2512.34 2380.72 2508.57 2380.31 2505.03 2380.42 2505.49 2379.24 2501.98 2379.4 2502.36 2377.5 2498.9 2377.69 2499.19 2375.11 2495.81 2375.3 2496.03 2372.11 2492.76 2372.28 2492.92 2368.52 2489.8 2368.68 2489.92 2364.4 2486.96 2364.55 2487.06 2359.81 2484.29 2359.95 2484.37 2354.8 2481.83 2354.93 2481.89 2349.41 2479.59 2349.61 2479.66 2337.7 2475.94 2337.89 2475.99 2331.6 2474.61 2331.74 2474.63 2325.29 2473.61 2325.43 2473.63 2318.88 2473 2319.02 2473.01 2312.42 2472.79ZM2428.07 2528.81 2453.49 2546.11 2424.4 2556.06Z" fill="#B8D1B7"/><path d="M2256 2517 2330.88 2517" stroke="#B8D1B7" stroke-width="10.3125" stroke-miterlimit="8" fill="none" fill-rule="evenodd"/><path d="M2256 2535 2307.97 2535" stroke="#B8D1B7" stroke-width="10.3125" stroke-miterlimit="8" fill="none" fill-rule="evenodd"/><path d="M2254 2470C2254 2455.64 2265.64 2444 2280 2444 2294.36 2444 2306 2455.64 2306 2470 2306 2484.36 2294.36 2496 2280 2496 2265.64 2496 2254 2484.36 2254 2470Z" fill="#B8D1B7" fill-rule="evenodd"/><path d="M2462 2592 2536.88 2592" stroke="#B8D1B7" stroke-width="10.3125" stroke-miterlimit="8" fill="none" fill-rule="evenodd"/><path d="M2462 2611 2513.97 2611" stroke="#B8D1B7" stroke-width="10.3125" stroke-miterlimit="8" fill="none" fill-rule="evenodd"/><path d="M2459 2545C2459 2530.64 2470.64 2519 2485 2519 2499.36 2519 2511 2530.64 2511 2545 2511 2559.36 2499.36 2571 2485 2571 2470.64 2571 2459 2559.36 2459 2545Z" fill="#B8D1B7" fill-rule="evenodd"/><path d="M2634 2522 2708.88 2522" stroke="#B8D1B7" stroke-width="10.3125" stroke-miterlimit="8" fill="none" fill-rule="evenodd"/><path d="M2634 2541 2685.97 2541" stroke="#B8D1B7" stroke-width="10.3125" stroke-miterlimit="8" fill="none" fill-rule="evenodd"/><path d="M2631 2475C2631 2460.64 2642.64 2449 2657 2449 2671.36 2449 2683 2460.64 2683 2475 2683 2489.36 2671.36 2501 2657 2501 2642.64 2501 2631 2489.36 2631 2475Z" fill="#B8D1B7" fill-rule="evenodd"/><path d="M0.0916282-2.28983 5.19054-2.0858 10.3733-1.47651 20.3184 0.805249 29.6588 4.36617 38.0137 8.97729 41.7963 11.6625 45.1955 14.5254 48.2067 17.5717 50.7885 20.7845 52.8956 24.1485 54.4767 27.6477 55.4727 31.2604 55.7986 34.7331 56.1056 38.0051 56.0332 37.6102 56.9282 40.8566 56.8073 40.5221 58.2511 43.7173 58.1048 43.4444 60.0581 46.5629 59.9024 46.3439 62.3261 49.36 62.1695 49.1844 65.0244 52.0725 64.8708 51.9307 68.1176 54.6652 67.9679 54.5494 71.5675 57.1047 71.3483 56.967 79.449 61.4378 78.9229 61.2275 85.2072 62.8752 84.0448 67.3087 77.4843 65.5885 69.0201 60.9172 65.2375 58.2319 61.8383 55.369 58.8271 52.3228 56.2453 49.11 54.1382 45.7459 52.5571 42.2467 51.5611 38.634 51.2353 35.1613 50.9282 31.8893 51.0006 32.2842 50.1056 29.0378 50.2265 29.3724 48.7827 26.1771 48.929 26.45 46.9757 23.3315 47.1314 23.5505 44.7078 20.5345 44.8643 20.71 42.0095 17.8219 42.163 17.9637 38.9162 15.2292 39.0659 15.345 35.4663 12.7897 35.6856 12.9274 27.5848 8.45661 27.8758 8.59156 18.8344 5.14461 19.1383 5.23691 9.46968 3.01858 9.71459 3.06094 4.74311 2.4765 4.91905 2.49034-0.0916282 2.28983ZM83.0259 50.6868 107.034 69.8944 77.263 77.5762Z" fill="#B8D1B7" transform="matrix(1 0 0 -1 2518.5 2545.39)"/><path d="M2784 2595 2858.88 2595" stroke="#B8D1B7" stroke-width="10.3125" stroke-miterlimit="8" fill="none" fill-rule="evenodd"/><path d="M2784 2613 2835.97 2613" stroke="#B8D1B7" stroke-width="10.3125" stroke-miterlimit="8" fill="none" fill-rule="evenodd"/><path d="M2782 2547C2782 2532.64 2793.64 2521 2808 2521 2822.36 2521 2834 2532.64 2834 2547 2834 2561.36 2822.36 2573 2808 2573 2793.64 2573 2782 2561.36 2782 2547Z" fill="#B8D1B7" fill-rule="evenodd"/><path d="M2690.62 2473.21 2694.72 2473.42 2698.94 2474.07 2706.97 2476.46 2714.51 2480.19 2721.25 2485.02 2726.98 2490.76 2731.4 2497.17 2733.08 2500.67 2734.32 2504.22 2735.1 2507.87 2735.35 2511.4 2735.6 2514.78 2735.55 2514.47 2736.27 2517.82 2736.19 2517.54 2737.34 2520.84 2737.24 2520.6 2738.79 2523.82 2738.61 2523.51 2742.81 2529.61 2742.55 2529.29 2747.99 2534.75 2747.4 2534.32 2754.99 2538.14 2752.93 2542.24 2745.01 2538.25 2739.16 2532.38 2734.74 2525.97 2733.05 2522.47 2731.81 2518.91 2731.04 2515.27 2730.78 2511.73 2730.54 2508.36 2730.58 2508.67 2729.87 2505.32 2729.95 2505.59 2728.8 2502.3 2728.9 2502.54 2727.35 2499.32 2727.52 2499.62 2723.32 2493.53 2723.59 2493.85 2718.14 2488.39 2718.43 2488.63 2711.99 2484.02 2712.31 2484.21 2705.11 2480.65 2705.48 2480.8 2697.79 2478.51 2698.09 2478.58 2694.14 2477.97 2694.37 2478 2690.38 2477.79ZM2754.1 2525.7 2775.64 2547.64 2745.16 2551.7Z" fill="#B8D1B7"/></g></svg>